solid OpenSCAD_Model
  facet normal -0.965926 -6.8564e-09 -0.25882
    outer loop
      vertex 12.5939 -5 4.8625
      vertex 12.7118 -0.5 4.42262
      vertex 12.7326 -5 4.345
    endloop
  endfacet
  facet normal -0.965926 0 -0.25882
    outer loop
      vertex 12.7118 -0.5 4.42262
      vertex 12.5939 -5 4.8625
      vertex 12.5939 -0.5 4.8625
    endloop
  endfacet
  facet normal -0.707107 0 -0.707106
    outer loop
      vertex 12.3059 -5 5.15049
      vertex 12.5939 -0.5 4.8625
      vertex 12.5939 -5 4.8625
    endloop
  endfacet
  facet normal -0.707107 -6.5758e-09 -0.707106
    outer loop
      vertex 12.5939 -0.5 4.8625
      vertex 12.3059 -5 5.15049
      vertex 11.9625 -0.5 5.49389
    endloop
  endfacet
  facet normal -0.707107 -0 -0.707106
    outer loop
      vertex 11.9625 -0.5 5.49389
      vertex 12.3059 -5 5.15049
      vertex 11.9625 -5 5.49389
    endloop
  endfacet
  facet normal -0.965926 0 -0.258819
    outer loop
      vertex 12.7326 -5 4.345
      vertex 12.825 -0.5 4
      vertex 12.825 -5 4
    endloop
  endfacet
  facet normal -0.965926 -2.48465e-08 -0.258819
    outer loop
      vertex 12.825 -0.5 4
      vertex 12.7326 -5 4.345
      vertex 12.7118 -0.5 4.42262
    endloop
  endfacet
  facet normal 0.965926 1.98092e-08 0.25882
    outer loop
      vertex 9.51366 -5 3.4825
      vertex 9.60611 -0.5 3.1375
      vertex 9.49286 -0.5 3.56012
    endloop
  endfacet
  facet normal 0.965926 0 0.258819
    outer loop
      vertex 9.60611 -0.5 3.1375
      vertex 9.51366 -5 3.4825
      vertex 9.60611 -5 3.1375
    endloop
  endfacet
  facet normal 0.258818 0 -0.965926
    outer loop
      vertex 10.4241 -5 5.54389
      vertex 11.1 -0.5 5.725
      vertex 11.1 -5 5.725
    endloop
  endfacet
  facet normal 0.25882 0 -0.965926
    outer loop
      vertex 10.2375 -0.5 5.49389
      vertex 10.4241 -5 5.54389
      vertex 10.2375 -5 5.49389
    endloop
  endfacet
  facet normal 0.258819 -5.76885e-08 -0.965926
    outer loop
      vertex 10.4241 -5 5.54389
      vertex 10.2375 -0.5 5.49389
      vertex 11.1 -0.5 5.725
    endloop
  endfacet
  facet normal 0.965926 -0 0.258818
    outer loop
      vertex 9.375 -5 4
      vertex 9.49286 -0.5 3.56012
      vertex 9.375 -0.5 4
    endloop
  endfacet
  facet normal 0.965926 4.16761e-08 0.258818
    outer loop
      vertex 9.49286 -0.5 3.56012
      vertex 9.375 -5 4
      vertex 9.51366 -5 3.4825
    endloop
  endfacet
  facet normal -0.707107 0 0.707107
    outer loop
      vertex 12.4573 -5 3.0009
      vertex 11.9625 -0.5 2.50611
      vertex 11.9625 -5 2.50611
    endloop
  endfacet
  facet normal -0.707107 -7.99704e-08 0.707106
    outer loop
      vertex 11.9625 -0.5 2.50611
      vertex 12.4573 -5 3.0009
      vertex 12.5939 -0.5 3.1375
    endloop
  endfacet
  facet normal -0.707109 0 0.707105
    outer loop
      vertex 12.5939 -0.5 3.1375
      vertex 12.4573 -5 3.0009
      vertex 12.5939 -5 3.1375
    endloop
  endfacet
  facet normal -0.258818 0 0.965926
    outer loop
      vertex 11.9625 -0.5 2.50611
      vertex 11.5691 -5 2.40069
      vertex 11.9625 -5 2.50611
    endloop
  endfacet
  facet normal -0.258819 1.47154e-08 0.965926
    outer loop
      vertex 11.1 -0.5 2.275
      vertex 11.5691 -5 2.40069
      vertex 11.9625 -0.5 2.50611
    endloop
  endfacet
  facet normal -0.258819 0 0.965926
    outer loop
      vertex 11.5691 -5 2.40069
      vertex 11.1 -0.5 2.275
      vertex 11.1 -5 2.275
    endloop
  endfacet
  facet normal 0.707108 0 -0.707106
    outer loop
      vertex 10.1009 -5 5.35729
      vertex 10.2375 -0.5 5.49389
      vertex 10.2375 -5 5.49389
    endloop
  endfacet
  facet normal 0.707107 4.25064e-08 -0.707106
    outer loop
      vertex 10.2375 -0.5 5.49389
      vertex 10.1009 -5 5.35729
      vertex 9.60611 -0.5 4.8625
    endloop
  endfacet
  facet normal 0.707107 0 -0.707106
    outer loop
      vertex 9.60611 -0.5 4.8625
      vertex 10.1009 -5 5.35729
      vertex 9.60611 -5 4.8625
    endloop
  endfacet
  facet normal -0.965926 1.09702e-08 0.25882
    outer loop
      vertex 12.825 -5 4
      vertex 12.7071 -0.5 3.56012
      vertex 12.6863 -5 3.4825
    endloop
  endfacet
  facet normal -0.965926 0 0.25882
    outer loop
      vertex 12.7071 -0.5 3.56012
      vertex 12.825 -5 4
      vertex 12.825 -0.5 4
    endloop
  endfacet
  facet normal 0.707107 -0 0.707106
    outer loop
      vertex 9.60611 -5 3.1375
      vertex 10.2375 -0.5 2.50611
      vertex 9.60611 -0.5 3.1375
    endloop
  endfacet
  facet normal 0.707107 0 0.707106
    outer loop
      vertex 10.2375 -0.5 2.50611
      vertex 9.60611 -5 3.1375
      vertex 10.2375 -5 2.50611
    endloop
  endfacet
  facet normal 0.258819 0 0.965926
    outer loop
      vertex 10.2375 -0.5 2.50611
      vertex 11.1 -5 2.275
      vertex 11.1 -0.5 2.275
    endloop
  endfacet
  facet normal 0.258819 0 0.965926
    outer loop
      vertex 11.1 -5 2.275
      vertex 10.2375 -0.5 2.50611
      vertex 10.2375 -5 2.50611
    endloop
  endfacet
  facet normal -0.258819 0 -0.965926
    outer loop
      vertex 11.1 -5 5.725
      vertex 11.9625 -0.5 5.49389
      vertex 11.9625 -5 5.49389
    endloop
  endfacet
  facet normal -0.258819 0 -0.965926
    outer loop
      vertex 11.9625 -0.5 5.49389
      vertex 11.1 -5 5.725
      vertex 11.1 -0.5 5.725
    endloop
  endfacet
  facet normal 0.965926 0 -0.258818
    outer loop
      vertex 9.60611 -5 4.8625
      vertex 9.48824 -0.5 4.42262
      vertex 9.60611 -0.5 4.8625
    endloop
  endfacet
  facet normal 0.965926 -3.75623e-08 -0.258819
    outer loop
      vertex 9.48824 -0.5 4.42262
      vertex 9.60611 -5 4.8625
      vertex 9.46744 -5 4.345
    endloop
  endfacet
  facet normal 0.965926 -2.48465e-08 -0.258819
    outer loop
      vertex 9.46744 -5 4.345
      vertex 9.375 -0.5 4
      vertex 9.48824 -0.5 4.42262
    endloop
  endfacet
  facet normal 0.965926 0 -0.258819
    outer loop
      vertex 9.375 -0.5 4
      vertex 9.46744 -5 4.345
      vertex 9.375 -5 4
    endloop
  endfacet
  facet normal -0.965925 0 0.258821
    outer loop
      vertex 12.6439 -5 3.3241
      vertex 12.5939 -0.5 3.1375
      vertex 12.5939 -5 3.1375
    endloop
  endfacet
  facet normal -0.965926 -5.70679e-08 0.25882
    outer loop
      vertex 12.5939 -0.5 3.1375
      vertex 12.6439 -5 3.3241
      vertex 12.7071 -0.5 3.56012
    endloop
  endfacet
  facet normal -0.965926 5.74838e-08 0.258818
    outer loop
      vertex 12.7071 -0.5 3.56012
      vertex 12.6439 -5 3.3241
      vertex 12.6863 -5 3.4825
    endloop
  endfacet
  facet normal 0.965926 0 -0.258819
    outer loop
      vertex -12.6863 -5 4.5175
      vertex -12.5939 -0.5 4.8625
      vertex -12.5939 -5 4.8625
    endloop
  endfacet
  facet normal 0.965926 1.98092e-08 -0.25882
    outer loop
      vertex -12.5939 -0.5 4.8625
      vertex -12.6863 -5 4.5175
      vertex -12.7071 -0.5 4.43987
    endloop
  endfacet
  facet normal 0.965926 0 -0.25882
    outer loop
      vertex -12.7071 -0.5 4.43987
      vertex -12.825 -5 4
      vertex -12.825 -0.5 4
    endloop
  endfacet
  facet normal 0.965926 1.09702e-08 -0.25882
    outer loop
      vertex -12.825 -5 4
      vertex -12.7071 -0.5 4.43987
      vertex -12.6863 -5 4.5175
    endloop
  endfacet
  facet normal -0.965925 0 0.258821
    outer loop
      vertex -9.55611 -5 3.3241
      vertex -9.60611 -0.5 3.1375
      vertex -9.60611 -5 3.1375
    endloop
  endfacet
  facet normal -0.965926 -8.28899e-08 0.258819
    outer loop
      vertex -9.60611 -0.5 3.1375
      vertex -9.55611 -5 3.3241
      vertex -9.49286 -0.5 3.56012
    endloop
  endfacet
  facet normal -0.965926 5.72113e-08 0.258817
    outer loop
      vertex -9.49286 -0.5 3.56012
      vertex -9.55611 -5 3.3241
      vertex -9.51366 -5 3.4825
    endloop
  endfacet
  facet normal 0.707108 0 -0.707106
    outer loop
      vertex -12.0991 -5 5.35729
      vertex -11.9625 -0.5 5.49389
      vertex -11.9625 -5 5.49389
    endloop
  endfacet
  facet normal 0.707107 4.25066e-08 -0.707106
    outer loop
      vertex -11.9625 -0.5 5.49389
      vertex -12.0991 -5 5.35729
      vertex -12.5939 -0.5 4.8625
    endloop
  endfacet
  facet normal 0.707107 0 -0.707106
    outer loop
      vertex -12.5939 -0.5 4.8625
      vertex -12.0991 -5 5.35729
      vertex -12.5939 -5 4.8625
    endloop
  endfacet
  facet normal -0.707107 0 -0.707106
    outer loop
      vertex -9.8941 -5 5.15049
      vertex -9.60611 -0.5 4.8625
      vertex -9.60611 -5 4.8625
    endloop
  endfacet
  facet normal -0.707107 -6.5758e-09 -0.707106
    outer loop
      vertex -9.60611 -0.5 4.8625
      vertex -9.8941 -5 5.15049
      vertex -10.2375 -0.5 5.49389
    endloop
  endfacet
  facet normal -0.707107 -0 -0.707106
    outer loop
      vertex -10.2375 -0.5 5.49389
      vertex -9.8941 -5 5.15049
      vertex -10.2375 -5 5.49389
    endloop
  endfacet
  facet normal 0.258819 0 0.965926
    outer loop
      vertex -11.9625 -0.5 2.50611
      vertex -11.1 -5 2.275
      vertex -11.1 -0.5 2.275
    endloop
  endfacet
  facet normal 0.258819 0 0.965926
    outer loop
      vertex -11.1 -5 2.275
      vertex -11.9625 -0.5 2.50611
      vertex -11.9625 -5 2.50611
    endloop
  endfacet
  facet normal -0.707107 0 0.707107
    outer loop
      vertex -9.74271 -5 3.0009
      vertex -10.2375 -0.5 2.50611
      vertex -10.2375 -5 2.50611
    endloop
  endfacet
  facet normal -0.707107 -7.99704e-08 0.707106
    outer loop
      vertex -10.2375 -0.5 2.50611
      vertex -9.74271 -5 3.0009
      vertex -9.60611 -0.5 3.1375
    endloop
  endfacet
  facet normal -0.707109 0 0.707105
    outer loop
      vertex -9.60611 -0.5 3.1375
      vertex -9.74271 -5 3.0009
      vertex -9.60611 -5 3.1375
    endloop
  endfacet
  facet normal -0.258819 0 -0.965926
    outer loop
      vertex -11.1 -5 5.725
      vertex -10.2375 -0.5 5.49389
      vertex -10.2375 -5 5.49389
    endloop
  endfacet
  facet normal -0.258819 0 -0.965926
    outer loop
      vertex -10.2375 -0.5 5.49389
      vertex -11.1 -5 5.725
      vertex -11.1 -0.5 5.725
    endloop
  endfacet
  facet normal 0.258819 0 -0.965926
    outer loop
      vertex -11.7759 -5 5.54389
      vertex -11.1 -0.5 5.725
      vertex -11.1 -5 5.725
    endloop
  endfacet
  facet normal 0.258819 0 -0.965926
    outer loop
      vertex -11.9625 -0.5 5.49389
      vertex -11.7759 -5 5.54389
      vertex -11.9625 -5 5.49389
    endloop
  endfacet
  facet normal 0.258819 -1.01861e-08 -0.965926
    outer loop
      vertex -11.7759 -5 5.54389
      vertex -11.9625 -0.5 5.49389
      vertex -11.1 -0.5 5.725
    endloop
  endfacet
  facet normal -0.965926 0 -0.258818
    outer loop
      vertex -9.375 -5 4
      vertex -9.49286 -0.5 4.43987
      vertex -9.375 -0.5 4
    endloop
  endfacet
  facet normal -0.965926 4.16761e-08 -0.258818
    outer loop
      vertex -9.49286 -0.5 4.43987
      vertex -9.375 -5 4
      vertex -9.51366 -5 4.5175
    endloop
  endfacet
  facet normal 0.707107 -0 0.707106
    outer loop
      vertex -12.5939 -5 3.1375
      vertex -11.9625 -0.5 2.50611
      vertex -12.5939 -0.5 3.1375
    endloop
  endfacet
  facet normal 0.707107 0 0.707106
    outer loop
      vertex -11.9625 -0.5 2.50611
      vertex -12.5939 -5 3.1375
      vertex -11.9625 -5 2.50611
    endloop
  endfacet
  facet normal 0.965926 0 0.258819
    outer loop
      vertex -12.7326 -5 3.655
      vertex -12.825 -0.5 4
      vertex -12.825 -5 4
    endloop
  endfacet
  facet normal 0.965926 -2.48465e-08 0.258819
    outer loop
      vertex -12.825 -0.5 4
      vertex -12.7326 -5 3.655
      vertex -12.7118 -0.5 3.57737
    endloop
  endfacet
  facet normal -0.258818 0 0.965926
    outer loop
      vertex -10.2375 -0.5 2.50611
      vertex -10.6309 -5 2.40069
      vertex -10.2375 -5 2.50611
    endloop
  endfacet
  facet normal -0.258819 1.47154e-08 0.965926
    outer loop
      vertex -11.1 -0.5 2.275
      vertex -10.6309 -5 2.40069
      vertex -10.2375 -0.5 2.50611
    endloop
  endfacet
  facet normal -0.258819 0 0.965926
    outer loop
      vertex -10.6309 -5 2.40069
      vertex -11.1 -0.5 2.275
      vertex -11.1 -5 2.275
    endloop
  endfacet
  facet normal -0.965926 1.98092e-08 -0.25882
    outer loop
      vertex -9.51366 -5 4.5175
      vertex -9.60611 -0.5 4.8625
      vertex -9.49286 -0.5 4.43987
    endloop
  endfacet
  facet normal -0.965926 -0 -0.258819
    outer loop
      vertex -9.60611 -0.5 4.8625
      vertex -9.51366 -5 4.5175
      vertex -9.60611 -5 4.8625
    endloop
  endfacet
  facet normal -0.965926 2.59065e-08 0.258818
    outer loop
      vertex -9.375 -5 4
      vertex -9.49286 -0.5 3.56012
      vertex -9.51366 -5 3.4825
    endloop
  endfacet
  facet normal -0.965926 0 0.258818
    outer loop
      vertex -9.49286 -0.5 3.56012
      vertex -9.375 -5 4
      vertex -9.375 -0.5 4
    endloop
  endfacet
  facet normal 0.965926 -6.8564e-09 0.25882
    outer loop
      vertex -12.5939 -5 3.1375
      vertex -12.7118 -0.5 3.57737
      vertex -12.7326 -5 3.655
    endloop
  endfacet
  facet normal 0.965926 0 0.25882
    outer loop
      vertex -12.7118 -0.5 3.57737
      vertex -12.5939 -5 3.1375
      vertex -12.5939 -0.5 3.1375
    endloop
  endfacet
  facet normal -0.859383 -0.329886 0.390687
    outer loop
      vertex -16.168 -5.25329 0
      vertex -14.4488 -5 3.99549
      vertex -12.9344 -4.20263 8
    endloop
  endfacet
  facet normal -0.859383 -0.329887 0.390687
    outer loop
      vertex -16.168 -5.25329 0
      vertex -14.257 -6.34761 3.27956
      vertex -14.4488 -5 3.99549
    endloop
  endfacet
  facet normal -0.859383 -0.329887 0.390687
    outer loop
      vertex -14.257 -6.34761 3.27956
      vertex -16.168 -5.25329 0
      vertex -15.5303 -6.91452 0
    endloop
  endfacet
  facet normal -0.859384 -0.329884 0.390686
    outer loop
      vertex -14.4478 -5 3.99776
      vertex -12.9344 -4.20263 8
      vertex -14.4488 -5 3.99549
    endloop
  endfacet
  facet normal -0.859423 -0.329787 0.390682
    outer loop
      vertex -14.4456 -5 4.00255
      vertex -12.9344 -4.20263 8
      vertex -14.4478 -5 3.99776
    endloop
  endfacet
  facet normal -0.859332 -0.330012 0.390692
    outer loop
      vertex -14.444 -5 4.00598
      vertex -12.9344 -4.20263 8
      vertex -14.4456 -5 4.00255
    endloop
  endfacet
  facet normal -0.859339 -0.329996 0.390692
    outer loop
      vertex -14.4347 -5 4.02658
      vertex -12.9344 -4.20263 8
      vertex -14.444 -5 4.00598
    endloop
  endfacet
  facet normal -0.859383 -0.329886 0.390686
    outer loop
      vertex -13.4219 -5 6.25426
      vertex -12.9344 -4.20263 8
      vertex -14.4347 -5 4.02658
    endloop
  endfacet
  facet normal -0.859383 -0.329886 0.390686
    outer loop
      vertex -12.899 -5.74299 6.77721
      vertex -12.9344 -4.20263 8
      vertex -13.4219 -5 6.25426
    endloop
  endfacet
  facet normal -0.859383 -0.329886 0.390686
    outer loop
      vertex -12.9344 -4.20263 8
      vertex -12.899 -5.74299 6.77721
      vertex -12.4242 -5.53162 8
    endloop
  endfacet
  facet normal 0.329886 -0.859383 0.390687
    outer loop
      vertex 5.25329 -16.168 0
      vertex 5.53162 -12.4242 8
      vertex 4.20263 -12.9344 8
    endloop
  endfacet
  facet normal 0.329887 -0.859383 0.390686
    outer loop
      vertex 5.53162 -12.4242 8
      vertex 5.25329 -16.168 0
      vertex 6.91452 -15.5303 0
    endloop
  endfacet
  facet normal -0.417909 -0.820193 0.390686
    outer loop
      vertex -6.91452 -15.5303 0
      vertex -6.8 -11.7779 8
      vertex -8.5 -14.7224 0
    endloop
  endfacet
  facet normal -0.417909 -0.820193 0.390686
    outer loop
      vertex -6.8 -11.7779 8
      vertex -6.91452 -15.5303 0
      vertex -5.53162 -12.4242 8
    endloop
  endfacet
  facet normal 0.820193 -0.417909 0.390687
    outer loop
      vertex 14.1001 -7.20297 2.694
      vertex 15.5303 -6.91452 0
      vertex 14.257 -6.34761 3.27956
    endloop
  endfacet
  facet normal 0.820193 -0.417909 0.390687
    outer loop
      vertex 14.0012 -7.74198 2.325
      vertex 15.5303 -6.91452 0
      vertex 14.1001 -7.20297 2.694
    endloop
  endfacet
  facet normal 0.820193 -0.417909 0.390686
    outer loop
      vertex 13.9029 -8.02683 2.22669
      vertex 15.5303 -6.91452 0
      vertex 14.0012 -7.74198 2.325
    endloop
  endfacet
  facet normal 0.820193 -0.417909 0.390686
    outer loop
      vertex 15.5303 -6.91452 0
      vertex 13.9029 -8.02683 2.22669
      vertex 14.7224 -8.5 0
    endloop
  endfacet
  facet normal 0.820193 -0.417909 0.390686
    outer loop
      vertex 12.4242 -5.53162 8
      vertex 12.775 -5.87041 6.90119
      vertex 12.899 -5.74299 6.77721
    endloop
  endfacet
  facet normal 0.820193 -0.41791 0.390686
    outer loop
      vertex 11.7779 -6.8 8
      vertex 12.775 -5.87041 6.90119
      vertex 12.4242 -5.53162 8
    endloop
  endfacet
  facet normal 0.820193 -0.417909 0.390687
    outer loop
      vertex 12.775 -5.87041 6.90119
      vertex 11.7779 -6.8 8
      vertex 12.1175 -6.99606 7.07735
    endloop
  endfacet
  facet normal -0.909191 -0.144002 0.390686
    outer loop
      vertex -16.9069 -1.77698 0
      vertex -13.3028 -2.8276 8
      vertex -13.5255 -1.42159 8
    endloop
  endfacet
  facet normal -0.909191 -0.144001 0.390687
    outer loop
      vertex -13.3028 -2.8276 8
      vertex -16.9069 -1.77698 0
      vertex -16.6285 -3.5345 0
    endloop
  endfacet
  facet normal -0.715382 -0.579304 0.390687
    outer loop
      vertex -13.7533 -9.99235 0
      vertex -12.775 -10.4594 1.09881
      vertex -13.2218 -9.60623 1.54566
    endloop
  endfacet
  facet normal -0.715382 -0.579304 0.390686
    outer loop
      vertex -13.7533 -9.99235 0
      vertex -12.3245 -11.0971 0.978113
      vertex -12.775 -10.4594 1.09881
    endloop
  endfacet
  facet normal -0.715382 -0.579304 0.390686
    outer loop
      vertex -12.3245 -11.0971 0.978113
      vertex -13.7533 -9.99235 0
      vertex -12.6335 -11.3752 0
    endloop
  endfacet
  facet normal -0.715383 -0.579302 0.390686
    outer loop
      vertex -11.1 -8.312 7.35
      vertex -11.0026 -7.99388 8
      vertex -11.2389 -8.16555 7.31278
    endloop
  endfacet
  facet normal -0.715382 -0.579304 0.390687
    outer loop
      vertex -11.1 -8.312 7.35
      vertex -10.1068 -9.10018 8
      vertex -11.0026 -7.99388 8
    endloop
  endfacet
  facet normal -0.715381 -0.579304 0.390687
    outer loop
      vertex -10.1068 -9.10018 8
      vertex -11.1 -8.312 7.35
      vertex -10.3735 -9.34038 7.15535
    endloop
  endfacet
  facet normal -0.579305 -0.715381 0.390687
    outer loop
      vertex -11.184 -12.4211 0.672501
      vertex -11.3752 -12.6335 0
      vertex -11.1 -12.5014 0.65
    endloop
  endfacet
  facet normal -0.579304 -0.715382 0.390686
    outer loop
      vertex -9.99235 -13.7533 0
      vertex -11.1 -12.5014 0.65
      vertex -11.3752 -12.6335 0
    endloop
  endfacet
  facet normal -0.579304 -0.715382 0.390686
    outer loop
      vertex -11.1 -12.5014 0.65
      vertex -9.99235 -13.7533 0
      vertex -9.73886 -13.4044 1.01471
    endloop
  endfacet
  facet normal -0.579304 -0.715382 0.390686
    outer loop
      vertex -9.41539 -10.4569 6.89158
      vertex -7.99388 -11.0026 8
      vertex -9.10018 -10.1068 8
    endloop
  endfacet
  facet normal -0.579304 -0.715381 0.390687
    outer loop
      vertex -7.99388 -11.0026 8
      vertex -9.41539 -10.4569 6.89158
      vertex -8.49956 -11.6986 5.97574
    endloop
  endfacet
  facet normal 0.144002 -0.909191 0.390686
    outer loop
      vertex 1.77698 -16.9069 0
      vertex 2.8276 -13.3028 8
      vertex 1.42159 -13.5255 8
    endloop
  endfacet
  facet normal 0.144001 -0.909191 0.390687
    outer loop
      vertex 2.8276 -13.3028 8
      vertex 1.77698 -16.9069 0
      vertex 3.5345 -16.6285 0
    endloop
  endfacet
  facet normal 0.417909 -0.820193 0.390686
    outer loop
      vertex 6.91452 -15.5303 0
      vertex 6.8 -11.7779 8
      vertex 5.53162 -12.4242 8
    endloop
  endfacet
  facet normal 0.417909 -0.820193 0.390686
    outer loop
      vertex 6.8 -11.7779 8
      vertex 6.91452 -15.5303 0
      vertex 8.5 -14.7224 0
    endloop
  endfacet
  facet normal 0.715382 -0.579304 0.390687
    outer loop
      vertex 12.775 -10.4594 1.09881
      vertex 13.7533 -9.99235 0
      vertex 13.2218 -9.60623 1.54566
    endloop
  endfacet
  facet normal 0.715382 -0.579304 0.390686
    outer loop
      vertex 12.3245 -11.0971 0.978113
      vertex 13.7533 -9.99235 0
      vertex 12.775 -10.4594 1.09881
    endloop
  endfacet
  facet normal 0.715382 -0.579304 0.390686
    outer loop
      vertex 13.7533 -9.99235 0
      vertex 12.3245 -11.0971 0.978113
      vertex 12.6335 -11.3752 0
    endloop
  endfacet
  facet normal 0.715383 -0.579302 0.390686
    outer loop
      vertex 11.0026 -7.99388 8
      vertex 11.1 -8.312 7.35
      vertex 11.2389 -8.16555 7.31278
    endloop
  endfacet
  facet normal 0.715382 -0.579304 0.390687
    outer loop
      vertex 10.1068 -9.10018 8
      vertex 11.1 -8.312 7.35
      vertex 11.0026 -7.99388 8
    endloop
  endfacet
  facet normal 0.715381 -0.579304 0.390687
    outer loop
      vertex 11.1 -8.312 7.35
      vertex 10.1068 -9.10018 8
      vertex 10.3735 -9.34038 7.15535
    endloop
  endfacet
  facet normal -0.889158 -0.238249 0.390687
    outer loop
      vertex -16.6285 -3.5345 0
      vertex -12.9344 -4.20263 8
      vertex -13.3028 -2.8276 8
    endloop
  endfacet
  facet normal -0.889158 -0.238249 0.390687
    outer loop
      vertex -12.9344 -4.20263 8
      vertex -16.6285 -3.5345 0
      vertex -16.168 -5.25329 0
    endloop
  endfacet
  facet normal -0.919262 -0.048177 0.390687
    outer loop
      vertex -16.9738 -0.5 0
      vertex -13.5255 -1.42159 8
      vertex -13.5738 -0.5 8
    endloop
  endfacet
  facet normal -0.919262 -0.0481773 0.390686
    outer loop
      vertex -13.5255 -1.42159 8
      vertex -16.9738 -0.5 0
      vertex -16.9069 -1.77698 0
    endloop
  endfacet
  facet normal 0 0 -1
    outer loop
      vertex 6.02081 -0.5 0
      vertex 16.9069 -1.77698 0
      vertex 16.6285 -3.5345 0
    endloop
  endfacet
  facet normal 0 0 -1
    outer loop
      vertex 5.80144 -1.885 0
      vertex 16.6285 -3.5345 0
      vertex 16.168 -5.25329 0
    endloop
  endfacet
  facet normal 0 0 -1
    outer loop
      vertex 5.80144 -1.885 0
      vertex 16.168 -5.25329 0
      vertex 15.5303 -6.91452 0
    endloop
  endfacet
  facet normal 0 0 -1
    outer loop
      vertex 5.80144 -1.885 0
      vertex 15.5303 -6.91452 0
      vertex 14.7224 -8.5 0
    endloop
  endfacet
  facet normal 0 0 -1
    outer loop
      vertex 4.935 -3.58549 0
      vertex 14.7224 -8.5 0
      vertex 13.7533 -9.99235 0
    endloop
  endfacet
  facet normal 0 0 -1
    outer loop
      vertex 4.935 -3.58549 0
      vertex 13.7533 -9.99235 0
      vertex 12.6335 -11.3752 0
    endloop
  endfacet
  facet normal 0 0 -1
    outer loop
      vertex 4.935 -3.58549 0
      vertex 12.6335 -11.3752 0
      vertex 11.3752 -12.6335 0
    endloop
  endfacet
  facet normal 0 0 -1
    outer loop
      vertex 3.58549 -4.935 0
      vertex 11.3752 -12.6335 0
      vertex 9.99235 -13.7533 0
    endloop
  endfacet
  facet normal 0 0 -1
    outer loop
      vertex 3.58549 -4.935 0
      vertex 9.99235 -13.7533 0
      vertex 8.5 -14.7224 0
    endloop
  endfacet
  facet normal 0 0 -1
    outer loop
      vertex 3.58549 -4.935 0
      vertex 8.5 -14.7224 0
      vertex 6.91452 -15.5303 0
    endloop
  endfacet
  facet normal 0 0 -1
    outer loop
      vertex 14.7224 -8.5 0
      vertex 4.935 -3.58549 0
      vertex 5.80144 -1.885 0
    endloop
  endfacet
  facet normal 0 0 -1
    outer loop
      vertex 16.9069 -1.77698 0
      vertex 6.02081 -0.5 0
      vertex 16.9738 -0.5 0
    endloop
  endfacet
  facet normal 0 0 -1
    outer loop
      vertex 1.885 -5.80144 0
      vertex 6.91452 -15.5303 0
      vertex 5.25329 -16.168 0
    endloop
  endfacet
  facet normal 0 0 -1
    outer loop
      vertex 16.6285 -3.5345 0
      vertex 5.80144 -1.885 0
      vertex 6.02081 -0.5 0
    endloop
  endfacet
  facet normal 0 0 -1
    outer loop
      vertex 11.3752 -12.6335 0
      vertex 3.58549 -4.935 0
      vertex 4.935 -3.58549 0
    endloop
  endfacet
  facet normal 0 0 -1
    outer loop
      vertex 1.885 -5.80144 0
      vertex 5.25329 -16.168 0
      vertex 3.5345 -16.6285 0
    endloop
  endfacet
  facet normal 0 0 -1
    outer loop
      vertex 6.91452 -15.5303 0
      vertex 1.885 -5.80144 0
      vertex 3.58549 -4.935 0
    endloop
  endfacet
  facet normal 0 0 -1
    outer loop
      vertex 1.77698 -16.9069 0
      vertex 1.885 -5.80144 0
      vertex 3.5345 -16.6285 0
    endloop
  endfacet
  facet normal 0 0 -1
    outer loop
      vertex 0 -6.1 0
      vertex 1.77698 -16.9069 0
      vertex 0 -17 0
    endloop
  endfacet
  facet normal 0 0 -1
    outer loop
      vertex 1.77698 -16.9069 0
      vertex 0 -6.1 0
      vertex 1.885 -5.80144 0
    endloop
  endfacet
  facet normal 0 0 -1
    outer loop
      vertex -1.77698 -16.9069 0
      vertex 0 -6.1 0
      vertex 0 -17 0
    endloop
  endfacet
  facet normal 0 0 -1
    outer loop
      vertex -1.77698 -16.9069 0
      vertex -1.885 -5.80144 0
      vertex 0 -6.1 0
    endloop
  endfacet
  facet normal 0 0 -1
    outer loop
      vertex -3.5345 -16.6285 0
      vertex -1.885 -5.80144 0
      vertex -1.77698 -16.9069 0
    endloop
  endfacet
  facet normal 0 0 -1
    outer loop
      vertex -5.25329 -16.168 0
      vertex -1.885 -5.80144 0
      vertex -3.5345 -16.6285 0
    endloop
  endfacet
  facet normal 0 0 -1
    outer loop
      vertex -6.91452 -15.5303 0
      vertex -1.885 -5.80144 0
      vertex -5.25329 -16.168 0
    endloop
  endfacet
  facet normal -0 0 -1
    outer loop
      vertex -1.885 -5.80144 0
      vertex -6.91452 -15.5303 0
      vertex -3.58549 -4.935 0
    endloop
  endfacet
  facet normal 0 0 -1
    outer loop
      vertex -8.5 -14.7224 0
      vertex -3.58549 -4.935 0
      vertex -6.91452 -15.5303 0
    endloop
  endfacet
  facet normal 0 0 -1
    outer loop
      vertex -9.99235 -13.7533 0
      vertex -3.58549 -4.935 0
      vertex -8.5 -14.7224 0
    endloop
  endfacet
  facet normal 0 0 -1
    outer loop
      vertex -11.3752 -12.6335 0
      vertex -3.58549 -4.935 0
      vertex -9.99235 -13.7533 0
    endloop
  endfacet
  facet normal -0 0 -1
    outer loop
      vertex -3.58549 -4.935 0
      vertex -11.3752 -12.6335 0
      vertex -4.935 -3.58549 0
    endloop
  endfacet
  facet normal 0 0 -1
    outer loop
      vertex -12.6335 -11.3752 0
      vertex -4.935 -3.58549 0
      vertex -11.3752 -12.6335 0
    endloop
  endfacet
  facet normal 0 0 -1
    outer loop
      vertex -13.7533 -9.99235 0
      vertex -4.935 -3.58549 0
      vertex -12.6335 -11.3752 0
    endloop
  endfacet
  facet normal 0 0 -1
    outer loop
      vertex -14.7224 -8.5 0
      vertex -4.935 -3.58549 0
      vertex -13.7533 -9.99235 0
    endloop
  endfacet
  facet normal -0 0 -1
    outer loop
      vertex -4.935 -3.58549 0
      vertex -14.7224 -8.5 0
      vertex -5.80144 -1.885 0
    endloop
  endfacet
  facet normal 0 0 -1
    outer loop
      vertex -15.5303 -6.91452 0
      vertex -5.80144 -1.885 0
      vertex -14.7224 -8.5 0
    endloop
  endfacet
  facet normal 0 0 -1
    outer loop
      vertex -16.168 -5.25329 0
      vertex -5.80144 -1.885 0
      vertex -15.5303 -6.91452 0
    endloop
  endfacet
  facet normal 0 0 -1
    outer loop
      vertex -16.6285 -3.5345 0
      vertex -5.80144 -1.885 0
      vertex -16.168 -5.25329 0
    endloop
  endfacet
  facet normal -0 0 -1
    outer loop
      vertex -5.80144 -1.885 0
      vertex -16.6285 -3.5345 0
      vertex -6.02081 -0.5 0
    endloop
  endfacet
  facet normal 0 0 -1
    outer loop
      vertex -16.9069 -1.77698 0
      vertex -6.02081 -0.5 0
      vertex -16.6285 -3.5345 0
    endloop
  endfacet
  facet normal -0 0 -1
    outer loop
      vertex -6.02081 -0.5 0
      vertex -16.9069 -1.77698 0
      vertex -16.9738 -0.5 0
    endloop
  endfacet
  facet normal -0.772016 -0.501353 0.390686
    outer loop
      vertex -14.7224 -8.5 0
      vertex -13.2218 -9.60623 1.54566
      vertex -13.9029 -8.02683 2.22669
    endloop
  endfacet
  facet normal -0.772016 -0.501353 0.390687
    outer loop
      vertex -13.2218 -9.60623 1.54566
      vertex -14.7224 -8.5 0
      vertex -13.7533 -9.99235 0
    endloop
  endfacet
  facet normal -0.772016 -0.501353 0.390687
    outer loop
      vertex -12.1175 -6.99606 7.07735
      vertex -11.0026 -7.99388 8
      vertex -11.7779 -6.8 8
    endloop
  endfacet
  facet normal -0.772016 -0.501353 0.390686
    outer loop
      vertex -11.0026 -7.99388 8
      vertex -12.1175 -6.99606 7.07735
      vertex -11.2389 -8.16555 7.31278
    endloop
  endfacet
  facet normal -0.820193 -0.417909 0.390687
    outer loop
      vertex -15.5303 -6.91452 0
      vertex -14.1001 -7.20297 2.694
      vertex -14.257 -6.34761 3.27956
    endloop
  endfacet
  facet normal -0.820193 -0.417909 0.390687
    outer loop
      vertex -15.5303 -6.91452 0
      vertex -14.0012 -7.74198 2.325
      vertex -14.1001 -7.20297 2.694
    endloop
  endfacet
  facet normal -0.820193 -0.417909 0.390686
    outer loop
      vertex -15.5303 -6.91452 0
      vertex -13.9029 -8.02683 2.22669
      vertex -14.0012 -7.74198 2.325
    endloop
  endfacet
  facet normal -0.820193 -0.417909 0.390686
    outer loop
      vertex -13.9029 -8.02683 2.22669
      vertex -15.5303 -6.91452 0
      vertex -14.7224 -8.5 0
    endloop
  endfacet
  facet normal -0.820193 -0.417909 0.390686
    outer loop
      vertex -12.775 -5.87041 6.90119
      vertex -12.4242 -5.53162 8
      vertex -12.899 -5.74299 6.77721
    endloop
  endfacet
  facet normal -0.820193 -0.41791 0.390686
    outer loop
      vertex -12.775 -5.87041 6.90119
      vertex -11.7779 -6.8 8
      vertex -12.4242 -5.53162 8
    endloop
  endfacet
  facet normal -0.820193 -0.417909 0.390687
    outer loop
      vertex -11.7779 -6.8 8
      vertex -12.775 -5.87041 6.90119
      vertex -12.1175 -6.99606 7.07735
    endloop
  endfacet
  facet normal -0.501353 -0.772016 0.390687
    outer loop
      vertex -8.49956 -11.6986 5.97574
      vertex -6.8 -11.7779 8
      vertex -7.99388 -11.0026 8
    endloop
  endfacet
  facet normal -0.501353 -0.772016 0.390687
    outer loop
      vertex -8.19881 -12.0461 5.675
      vertex -6.8 -11.7779 8
      vertex -8.49956 -11.6986 5.97574
    endloop
  endfacet
  facet normal -0.501353 -0.772016 0.390686
    outer loop
      vertex -8.0798 -12.3482 5.23082
      vertex -6.8 -11.7779 8
      vertex -8.19881 -12.0461 5.675
    endloop
  endfacet
  facet normal -0.501353 -0.772016 0.390686
    outer loop
      vertex -7.75 -13.1852 4
      vertex -6.8 -11.7779 8
      vertex -8.0798 -12.3482 5.23082
    endloop
  endfacet
  facet normal -0.501353 -0.772017 0.390686
    outer loop
      vertex -9.99235 -13.7533 0
      vertex -9.425 -13.5657 1.09881
      vertex -9.73886 -13.4044 1.01471
    endloop
  endfacet
  facet normal -0.501353 -0.772016 0.390687
    outer loop
      vertex -8.5 -14.7224 0
      vertex -9.425 -13.5657 1.09881
      vertex -9.99235 -13.7533 0
    endloop
  endfacet
  facet normal -0.501354 -0.772016 0.390686
    outer loop
      vertex -7.75 -13.1852 4
      vertex -8.5 -14.7224 0
      vertex -6.8 -11.7779 8
    endloop
  endfacet
  facet normal -0.501355 -0.772015 0.390686
    outer loop
      vertex -8.139 -13.6673 2.54823
      vertex -8.5 -14.7224 0
      vertex -7.75 -13.1852 4
    endloop
  endfacet
  facet normal -0.501347 -0.77202 0.390687
    outer loop
      vertex -8.19881 -13.7414 2.325
      vertex -8.5 -14.7224 0
      vertex -8.139 -13.6673 2.54823
    endloop
  endfacet
  facet normal -0.501353 -0.772016 0.390686
    outer loop
      vertex -9.425 -13.5657 1.09881
      vertex -8.5 -14.7224 0
      vertex -8.19881 -13.7414 2.325
    endloop
  endfacet
  facet normal -0.650909 -0.650909 0.390686
    outer loop
      vertex -12.6335 -11.3752 0
      vertex -11.184 -12.4211 0.672501
      vertex -12.3245 -11.0971 0.978113
    endloop
  endfacet
  facet normal -0.650909 -0.650909 0.390687
    outer loop
      vertex -11.184 -12.4211 0.672501
      vertex -12.6335 -11.3752 0
      vertex -11.3752 -12.6335 0
    endloop
  endfacet
  facet normal -0.650909 -0.650909 0.390687
    outer loop
      vertex -10.3735 -9.34038 7.15535
      vertex -9.10018 -10.1068 8
      vertex -10.1068 -9.10018 8
    endloop
  endfacet
  facet normal -0.650909 -0.650909 0.390687
    outer loop
      vertex -9.425 -10.4415 6.90119
      vertex -9.10018 -10.1068 8
      vertex -10.3735 -9.34038 7.15535
    endloop
  endfacet
  facet normal -0.650896 -0.650921 0.390687
    outer loop
      vertex -9.10018 -10.1068 8
      vertex -9.425 -10.4415 6.90119
      vertex -9.41539 -10.4569 6.89158
    endloop
  endfacet
  facet normal -0.0481767 -0.919262 0.390686
    outer loop
      vertex 0 -17 0
      vertex -1.42159 -13.5255 8
      vertex -1.77698 -16.9069 0
    endloop
  endfacet
  facet normal -0.048177 -0.919262 0.390686
    outer loop
      vertex -1.42159 -13.5255 8
      vertex 0 -17 0
      vertex 0 -13.6 8
    endloop
  endfacet
  facet normal -0.144001 -0.909191 0.390687
    outer loop
      vertex -1.77698 -16.9069 0
      vertex -2.8276 -13.3028 8
      vertex -3.5345 -16.6285 0
    endloop
  endfacet
  facet normal -0.144002 -0.909191 0.390686
    outer loop
      vertex -2.8276 -13.3028 8
      vertex -1.77698 -16.9069 0
      vertex -1.42159 -13.5255 8
    endloop
  endfacet
  facet normal -0.238249 -0.889158 0.390687
    outer loop
      vertex -3.5345 -16.6285 0
      vertex -4.20263 -12.9344 8
      vertex -5.25329 -16.168 0
    endloop
  endfacet
  facet normal -0.238249 -0.889158 0.390687
    outer loop
      vertex -4.20263 -12.9344 8
      vertex -3.5345 -16.6285 0
      vertex -2.8276 -13.3028 8
    endloop
  endfacet
  facet normal -0.329887 -0.859383 0.390686
    outer loop
      vertex -5.25329 -16.168 0
      vertex -5.53162 -12.4242 8
      vertex -6.91452 -15.5303 0
    endloop
  endfacet
  facet normal -0.329886 -0.859383 0.390687
    outer loop
      vertex -5.53162 -12.4242 8
      vertex -5.25329 -16.168 0
      vertex -4.20263 -12.9344 8
    endloop
  endfacet
  facet normal 0.238249 -0.889158 0.390687
    outer loop
      vertex 3.5345 -16.6285 0
      vertex 4.20263 -12.9344 8
      vertex 2.8276 -13.3028 8
    endloop
  endfacet
  facet normal 0.238249 -0.889158 0.390687
    outer loop
      vertex 4.20263 -12.9344 8
      vertex 3.5345 -16.6285 0
      vertex 5.25329 -16.168 0
    endloop
  endfacet
  facet normal 0.048177 -0.919262 0.390686
    outer loop
      vertex 0 -17 0
      vertex 1.42159 -13.5255 8
      vertex 0 -13.6 8
    endloop
  endfacet
  facet normal 0.0481767 -0.919262 0.390686
    outer loop
      vertex 1.42159 -13.5255 8
      vertex 0 -17 0
      vertex 1.77698 -16.9069 0
    endloop
  endfacet
  facet normal 0.579304 -0.715382 0.390686
    outer loop
      vertex 11.3752 -12.6335 0
      vertex 11.1 -12.5014 0.65
      vertex 9.99235 -13.7533 0
    endloop
  endfacet
  facet normal 0.579305 -0.715381 0.390687
    outer loop
      vertex 11.1 -12.5014 0.65
      vertex 11.3752 -12.6335 0
      vertex 11.184 -12.4211 0.672501
    endloop
  endfacet
  facet normal 0.579304 -0.715382 0.390686
    outer loop
      vertex 9.73886 -13.4044 1.01471
      vertex 9.99235 -13.7533 0
      vertex 11.1 -12.5014 0.65
    endloop
  endfacet
  facet normal 0.579304 -0.715382 0.390686
    outer loop
      vertex 7.99388 -11.0026 8
      vertex 9.41539 -10.4569 6.89158
      vertex 9.10018 -10.1068 8
    endloop
  endfacet
  facet normal 0.579304 -0.715381 0.390687
    outer loop
      vertex 9.41539 -10.4569 6.89158
      vertex 7.99388 -11.0026 8
      vertex 8.49956 -11.6986 5.97574
    endloop
  endfacet
  facet normal 0.501353 -0.772016 0.390687
    outer loop
      vertex 6.8 -11.7779 8
      vertex 8.49956 -11.6986 5.97574
      vertex 7.99388 -11.0026 8
    endloop
  endfacet
  facet normal 0.501353 -0.772016 0.390687
    outer loop
      vertex 6.8 -11.7779 8
      vertex 8.19881 -12.0461 5.675
      vertex 8.49956 -11.6986 5.97574
    endloop
  endfacet
  facet normal 0.501353 -0.772016 0.390686
    outer loop
      vertex 6.8 -11.7779 8
      vertex 7.84192 -12.952 4.34305
      vertex 8.19881 -12.0461 5.675
    endloop
  endfacet
  facet normal 0.501355 -0.772015 0.390687
    outer loop
      vertex 6.8 -11.7779 8
      vertex 7.75 -13.1852 4
      vertex 7.84192 -12.952 4.34305
    endloop
  endfacet
  facet normal 0.501344 -0.772022 0.390687
    outer loop
      vertex 8.5 -14.7224 0
      vertex 7.82716 -13.2809 3.71204
      vertex 7.75 -13.1852 4
    endloop
  endfacet
  facet normal 0.501352 -0.772017 0.390686
    outer loop
      vertex 8.5 -14.7224 0
      vertex 7.75 -13.1852 4
      vertex 6.8 -11.7779 8
    endloop
  endfacet
  facet normal 0.501355 -0.772015 0.390686
    outer loop
      vertex 7.82716 -13.2809 3.71204
      vertex 8.5 -14.7224 0
      vertex 8.19881 -13.7414 2.325
    endloop
  endfacet
  facet normal 0.501353 -0.772016 0.390686
    outer loop
      vertex 8.5 -14.7224 0
      vertex 9.425 -13.5657 1.09881
      vertex 8.19881 -13.7414 2.325
    endloop
  endfacet
  facet normal 0.501353 -0.772016 0.390687
    outer loop
      vertex 9.99235 -13.7533 0
      vertex 9.425 -13.5657 1.09881
      vertex 8.5 -14.7224 0
    endloop
  endfacet
  facet normal 0.501353 -0.772017 0.390686
    outer loop
      vertex 9.425 -13.5657 1.09881
      vertex 9.99235 -13.7533 0
      vertex 9.73886 -13.4044 1.01471
    endloop
  endfacet
  facet normal 0.772016 -0.501353 0.390686
    outer loop
      vertex 13.2218 -9.60623 1.54566
      vertex 14.7224 -8.5 0
      vertex 13.9029 -8.02683 2.22669
    endloop
  endfacet
  facet normal 0.772016 -0.501353 0.390687
    outer loop
      vertex 14.7224 -8.5 0
      vertex 13.2218 -9.60623 1.54566
      vertex 13.7533 -9.99235 0
    endloop
  endfacet
  facet normal 0.772016 -0.501353 0.390687
    outer loop
      vertex 11.0026 -7.99388 8
      vertex 12.1175 -6.99606 7.07735
      vertex 11.7779 -6.8 8
    endloop
  endfacet
  facet normal 0.772016 -0.501353 0.390686
    outer loop
      vertex 12.1175 -6.99606 7.07735
      vertex 11.0026 -7.99388 8
      vertex 11.2389 -8.16555 7.31278
    endloop
  endfacet
  facet normal 0.650909 -0.650909 0.390686
    outer loop
      vertex 11.184 -12.4211 0.672501
      vertex 12.6335 -11.3752 0
      vertex 12.3245 -11.0971 0.978113
    endloop
  endfacet
  facet normal 0.650909 -0.650909 0.390687
    outer loop
      vertex 12.6335 -11.3752 0
      vertex 11.184 -12.4211 0.672501
      vertex 11.3752 -12.6335 0
    endloop
  endfacet
  facet normal 0.650909 -0.650909 0.390687
    outer loop
      vertex 9.10018 -10.1068 8
      vertex 10.3735 -9.34038 7.15535
      vertex 10.1068 -9.10018 8
    endloop
  endfacet
  facet normal 0.650909 -0.650909 0.390687
    outer loop
      vertex 9.10018 -10.1068 8
      vertex 9.425 -10.4415 6.90119
      vertex 10.3735 -9.34038 7.15535
    endloop
  endfacet
  facet normal 0.650896 -0.650921 0.390687
    outer loop
      vertex 9.425 -10.4415 6.90119
      vertex 9.10018 -10.1068 8
      vertex 9.41539 -10.4569 6.89158
    endloop
  endfacet
  facet normal 0.919262 -0.048177 0.390687
    outer loop
      vertex 13.5255 -1.42159 8
      vertex 16.9738 -0.5 0
      vertex 13.5738 -0.5 8
    endloop
  endfacet
  facet normal 0.919262 -0.0481773 0.390686
    outer loop
      vertex 16.9738 -0.5 0
      vertex 13.5255 -1.42159 8
      vertex 16.9069 -1.77698 0
    endloop
  endfacet
  facet normal 0.909191 -0.144002 0.390686
    outer loop
      vertex 13.3028 -2.8276 8
      vertex 16.9069 -1.77698 0
      vertex 13.5255 -1.42159 8
    endloop
  endfacet
  facet normal 0.909191 -0.144001 0.390687
    outer loop
      vertex 16.9069 -1.77698 0
      vertex 13.3028 -2.8276 8
      vertex 16.6285 -3.5345 0
    endloop
  endfacet
  facet normal 0.889158 -0.238249 0.390687
    outer loop
      vertex 12.9344 -4.20263 8
      vertex 16.6285 -3.5345 0
      vertex 13.3028 -2.8276 8
    endloop
  endfacet
  facet normal 0.889158 -0.238249 0.390687
    outer loop
      vertex 16.6285 -3.5345 0
      vertex 12.9344 -4.20263 8
      vertex 16.168 -5.25329 0
    endloop
  endfacet
  facet normal 0.859383 -0.329886 0.390686
    outer loop
      vertex 12.899 -5.74299 6.77721
      vertex 12.9344 -4.20263 8
      vertex 12.4242 -5.53162 8
    endloop
  endfacet
  facet normal 0.859383 -0.329886 0.390686
    outer loop
      vertex 12.9344 -4.20263 8
      vertex 12.899 -5.74299 6.77721
      vertex 13.4219 -5 6.25426
    endloop
  endfacet
  facet normal 0.859383 -0.329887 0.390687
    outer loop
      vertex 13.8244 -5 5.36886
      vertex 12.9344 -4.20263 8
      vertex 13.4219 -5 6.25426
    endloop
  endfacet
  facet normal 0.859384 -0.329884 0.390686
    outer loop
      vertex 14.4478 -5 3.99776
      vertex 12.9344 -4.20263 8
      vertex 13.8244 -5 5.36886
    endloop
  endfacet
  facet normal 0.858821 -0.331272 0.39075
    outer loop
      vertex 14.4488 -5 3.99549
      vertex 12.9344 -4.20263 8
      vertex 14.4478 -5 3.99776
    endloop
  endfacet
  facet normal 0.859383 -0.329886 0.390687
    outer loop
      vertex 14.4488 -5 3.99549
      vertex 16.168 -5.25329 0
      vertex 12.9344 -4.20263 8
    endloop
  endfacet
  facet normal 0.859383 -0.329887 0.390686
    outer loop
      vertex 14.257 -6.34761 3.27956
      vertex 16.168 -5.25329 0
      vertex 14.4488 -5 3.99549
    endloop
  endfacet
  facet normal 0.859383 -0.329887 0.390687
    outer loop
      vertex 16.168 -5.25329 0
      vertex 14.257 -6.34761 3.27956
      vertex 15.5303 -6.91452 0
    endloop
  endfacet
  facet normal -0 0 1
    outer loop
      vertex 8.03929 -0.5 8
      vertex 13.5255 -1.42159 8
      vertex 13.5738 -0.5 8
    endloop
  endfacet
  facet normal 0 0 1
    outer loop
      vertex 7.86463 -1.93846 8
      vertex 13.5255 -1.42159 8
      vertex 8.03929 -0.5 8
    endloop
  endfacet
  facet normal 0 0 1
    outer loop
      vertex 13.3028 -2.8276 8
      vertex 7.86463 -1.93846 8
      vertex 12.9344 -4.20263 8
    endloop
  endfacet
  facet normal -0 0 1
    outer loop
      vertex 7.17219 -3.76426 8
      vertex 12.9344 -4.20263 8
      vertex 7.86463 -1.93846 8
    endloop
  endfacet
  facet normal 0 0 1
    outer loop
      vertex 12.9344 -4.20263 8
      vertex 7.17219 -3.76426 8
      vertex 12.4242 -5.53162 8
    endloop
  endfacet
  facet normal 0 0 1
    outer loop
      vertex 12.4242 -5.53162 8
      vertex 7.17219 -3.76426 8
      vertex 11.7779 -6.8 8
    endloop
  endfacet
  facet normal -0 0 1
    outer loop
      vertex 6.06294 -5.37129 8
      vertex 11.0026 -7.99388 8
      vertex 7.17219 -3.76426 8
    endloop
  endfacet
  facet normal 0 0 1
    outer loop
      vertex 13.5255 -1.42159 8
      vertex 7.86463 -1.93846 8
      vertex 13.3028 -2.8276 8
    endloop
  endfacet
  facet normal 0 0 1
    outer loop
      vertex 11.7779 -6.8 8
      vertex 7.17219 -3.76426 8
      vertex 11.0026 -7.99388 8
    endloop
  endfacet
  facet normal 0 0 1
    outer loop
      vertex 11.0026 -7.99388 8
      vertex 6.06294 -5.37129 8
      vertex 10.1068 -9.10018 8
    endloop
  endfacet
  facet normal 0 0 1
    outer loop
      vertex 10.1068 -9.10018 8
      vertex 6.06294 -5.37129 8
      vertex 9.10018 -10.1068 8
    endloop
  endfacet
  facet normal -0 0 1
    outer loop
      vertex 4.60132 -6.66617 8
      vertex 9.10018 -10.1068 8
      vertex 6.06294 -5.37129 8
    endloop
  endfacet
  facet normal 0 0 1
    outer loop
      vertex 9.10018 -10.1068 8
      vertex 4.60132 -6.66617 8
      vertex 7.99388 -11.0026 8
    endloop
  endfacet
  facet normal 0 0 1
    outer loop
      vertex 7.99388 -11.0026 8
      vertex 4.60132 -6.66617 8
      vertex 6.8 -11.7779 8
    endloop
  endfacet
  facet normal -0 0 1
    outer loop
      vertex 2.8723 -7.57363 8
      vertex 6.8 -11.7779 8
      vertex 4.60132 -6.66617 8
    endloop
  endfacet
  facet normal 0 0 1
    outer loop
      vertex 6.8 -11.7779 8
      vertex 2.8723 -7.57363 8
      vertex 5.53162 -12.4242 8
    endloop
  endfacet
  facet normal 0 0 1
    outer loop
      vertex 5.53162 -12.4242 8
      vertex 2.8723 -7.57363 8
      vertex 4.20263 -12.9344 8
    endloop
  endfacet
  facet normal 0 0 1
    outer loop
      vertex 2.8723 -7.57363 8
      vertex 2.8276 -13.3028 8
      vertex 4.20263 -12.9344 8
    endloop
  endfacet
  facet normal -0 0 1
    outer loop
      vertex 0.976347 -8.04094 8
      vertex 2.8276 -13.3028 8
      vertex 2.8723 -7.57363 8
    endloop
  endfacet
  facet normal 0 0 1
    outer loop
      vertex 2.8276 -13.3028 8
      vertex 0.976347 -8.04094 8
      vertex 1.42159 -13.5255 8
    endloop
  endfacet
  facet normal 0 0 1
    outer loop
      vertex 0.976347 -8.04094 8
      vertex 0 -13.6 8
      vertex 1.42159 -13.5255 8
    endloop
  endfacet
  facet normal -0 0 1
    outer loop
      vertex -0.976347 -8.04094 8
      vertex 0 -13.6 8
      vertex 0.976347 -8.04094 8
    endloop
  endfacet
  facet normal 0 0 1
    outer loop
      vertex -0.976347 -8.04094 8
      vertex -1.42159 -13.5255 8
      vertex 0 -13.6 8
    endloop
  endfacet
  facet normal 0 0 1
    outer loop
      vertex -0.976347 -8.04094 8
      vertex -2.8276 -13.3028 8
      vertex -1.42159 -13.5255 8
    endloop
  endfacet
  facet normal 0 0 1
    outer loop
      vertex -2.8723 -7.57363 8
      vertex -2.8276 -13.3028 8
      vertex -0.976347 -8.04094 8
    endloop
  endfacet
  facet normal 0 0 1
    outer loop
      vertex -2.8723 -7.57363 8
      vertex -4.20263 -12.9344 8
      vertex -2.8276 -13.3028 8
    endloop
  endfacet
  facet normal 0 0 1
    outer loop
      vertex -6.8 -11.7779 8
      vertex -2.8723 -7.57363 8
      vertex -4.60132 -6.66617 8
    endloop
  endfacet
  facet normal 0 0 1
    outer loop
      vertex -2.8723 -7.57363 8
      vertex -5.53162 -12.4242 8
      vertex -4.20263 -12.9344 8
    endloop
  endfacet
  facet normal 0 0 1
    outer loop
      vertex -9.10018 -10.1068 8
      vertex -4.60132 -6.66617 8
      vertex -6.06294 -5.37129 8
    endloop
  endfacet
  facet normal 0 0 1
    outer loop
      vertex -2.8723 -7.57363 8
      vertex -6.8 -11.7779 8
      vertex -5.53162 -12.4242 8
    endloop
  endfacet
  facet normal 0 0 1
    outer loop
      vertex -11.0026 -7.99388 8
      vertex -6.06294 -5.37129 8
      vertex -7.17219 -3.76426 8
    endloop
  endfacet
  facet normal 0 0 1
    outer loop
      vertex -12.9344 -4.20263 8
      vertex -7.17219 -3.76426 8
      vertex -7.86463 -1.93846 8
    endloop
  endfacet
  facet normal 0 0 1
    outer loop
      vertex -4.60132 -6.66617 8
      vertex -7.99388 -11.0026 8
      vertex -6.8 -11.7779 8
    endloop
  endfacet
  facet normal -0 0 1
    outer loop
      vertex -13.5255 -1.42159 8
      vertex -7.86463 -1.93846 8
      vertex -8.03929 -0.5 8
    endloop
  endfacet
  facet normal 0 0 1
    outer loop
      vertex -4.60132 -6.66617 8
      vertex -9.10018 -10.1068 8
      vertex -7.99388 -11.0026 8
    endloop
  endfacet
  facet normal 0 0 1
    outer loop
      vertex -6.06294 -5.37129 8
      vertex -10.1068 -9.10018 8
      vertex -9.10018 -10.1068 8
    endloop
  endfacet
  facet normal 0 0 1
    outer loop
      vertex -6.06294 -5.37129 8
      vertex -11.0026 -7.99388 8
      vertex -10.1068 -9.10018 8
    endloop
  endfacet
  facet normal 0 0 1
    outer loop
      vertex -7.17219 -3.76426 8
      vertex -11.7779 -6.8 8
      vertex -11.0026 -7.99388 8
    endloop
  endfacet
  facet normal 0 0 1
    outer loop
      vertex -7.17219 -3.76426 8
      vertex -12.4242 -5.53162 8
      vertex -11.7779 -6.8 8
    endloop
  endfacet
  facet normal 0 0 1
    outer loop
      vertex -7.17219 -3.76426 8
      vertex -12.9344 -4.20263 8
      vertex -12.4242 -5.53162 8
    endloop
  endfacet
  facet normal 0 0 1
    outer loop
      vertex -7.86463 -1.93846 8
      vertex -13.3028 -2.8276 8
      vertex -12.9344 -4.20263 8
    endloop
  endfacet
  facet normal 0 0 1
    outer loop
      vertex -7.86463 -1.93846 8
      vertex -13.5255 -1.42159 8
      vertex -13.3028 -2.8276 8
    endloop
  endfacet
  facet normal 0 -0 1
    outer loop
      vertex -13.5255 -1.42159 8
      vertex -8.03929 -0.5 8
      vertex -13.5738 -0.5 8
    endloop
  endfacet
  facet normal 0 1 0
    outer loop
      vertex -9.60611 -0.5 3.1375
      vertex -8.03929 -0.5 5
      vertex -6.02081 -0.5 5
    endloop
  endfacet
  facet normal 0 1 0
    outer loop
      vertex -8.03929 -0.5 5
      vertex -9.49286 -0.5 4.43987
      vertex -9.60611 -0.5 4.8625
    endloop
  endfacet
  facet normal 0 1 0
    outer loop
      vertex -8.03929 -0.5 5
      vertex -9.375 -0.5 4
      vertex -9.49286 -0.5 4.43987
    endloop
  endfacet
  facet normal 0 1 0
    outer loop
      vertex -8.03929 -0.5 5
      vertex -9.49286 -0.5 3.56012
      vertex -9.375 -0.5 4
    endloop
  endfacet
  facet normal 0 1 0
    outer loop
      vertex -8.03929 -0.5 5
      vertex -9.60611 -0.5 3.1375
      vertex -9.49286 -0.5 3.56012
    endloop
  endfacet
  facet normal 0 1 -0
    outer loop
      vertex -6.02081 -0.5 0
      vertex -9.60611 -0.5 3.1375
      vertex -6.02081 -0.5 5
    endloop
  endfacet
  facet normal 0 1 0
    outer loop
      vertex -10.2375 -0.5 2.50611
      vertex -6.02081 -0.5 0
      vertex -11.1 -0.5 2.275
    endloop
  endfacet
  facet normal 0 1 0
    outer loop
      vertex -9.60611 -0.5 3.1375
      vertex -6.02081 -0.5 0
      vertex -10.2375 -0.5 2.50611
    endloop
  endfacet
  facet normal 0 1 0
    outer loop
      vertex -8.03929 -0.5 8
      vertex -11.1 -0.5 5.725
      vertex -13.5738 -0.5 8
    endloop
  endfacet
  facet normal 0 1 0
    outer loop
      vertex -8.03929 -0.5 8
      vertex -10.2375 -0.5 5.49389
      vertex -11.1 -0.5 5.725
    endloop
  endfacet
  facet normal 0 1 -0
    outer loop
      vertex -8.03929 -0.5 5
      vertex -10.2375 -0.5 5.49389
      vertex -8.03929 -0.5 8
    endloop
  endfacet
  facet normal 0 1 0
    outer loop
      vertex -10.2375 -0.5 5.49389
      vertex -8.03929 -0.5 5
      vertex -9.60611 -0.5 4.8625
    endloop
  endfacet
  facet normal 0 1 -0
    outer loop
      vertex -11.9625 -0.5 5.49389
      vertex -13.5738 -0.5 8
      vertex -11.1 -0.5 5.725
    endloop
  endfacet
  facet normal 0 1 -0
    outer loop
      vertex -12.5939 -0.5 4.8625
      vertex -13.5738 -0.5 8
      vertex -11.9625 -0.5 5.49389
    endloop
  endfacet
  facet normal 0 1 -0
    outer loop
      vertex -12.7071 -0.5 4.43987
      vertex -13.5738 -0.5 8
      vertex -12.5939 -0.5 4.8625
    endloop
  endfacet
  facet normal 0 1 -0
    outer loop
      vertex -12.825 -0.5 4
      vertex -13.5738 -0.5 8
      vertex -12.7071 -0.5 4.43987
    endloop
  endfacet
  facet normal 0 1 0
    outer loop
      vertex -16.9738 -0.5 0
      vertex -11.1 -0.5 2.275
      vertex -6.02081 -0.5 0
    endloop
  endfacet
  facet normal 0 1 0
    outer loop
      vertex -12.825 -0.5 4
      vertex -16.9738 -0.5 0
      vertex -13.5738 -0.5 8
    endloop
  endfacet
  facet normal 0 1 0
    outer loop
      vertex -12.7118 -0.5 3.57737
      vertex -16.9738 -0.5 0
      vertex -12.825 -0.5 4
    endloop
  endfacet
  facet normal 0 1 0
    outer loop
      vertex -12.5939 -0.5 3.1375
      vertex -16.9738 -0.5 0
      vertex -12.7118 -0.5 3.57737
    endloop
  endfacet
  facet normal 0 1 0
    outer loop
      vertex -11.9625 -0.5 2.50611
      vertex -16.9738 -0.5 0
      vertex -12.5939 -0.5 3.1375
    endloop
  endfacet
  facet normal 0 1 0
    outer loop
      vertex -11.1 -0.5 2.275
      vertex -16.9738 -0.5 0
      vertex -11.9625 -0.5 2.50611
    endloop
  endfacet
  facet normal 0 1 0
    outer loop
      vertex 13.5738 -0.5 8
      vertex 11.1 -0.5 5.725
      vertex 8.03929 -0.5 8
    endloop
  endfacet
  facet normal 0 1 0
    outer loop
      vertex 13.5738 -0.5 8
      vertex 11.9625 -0.5 5.49389
      vertex 11.1 -0.5 5.725
    endloop
  endfacet
  facet normal 0 1 0
    outer loop
      vertex 13.5738 -0.5 8
      vertex 12.5939 -0.5 4.8625
      vertex 11.9625 -0.5 5.49389
    endloop
  endfacet
  facet normal 0 1 0
    outer loop
      vertex 13.5738 -0.5 8
      vertex 12.7118 -0.5 4.42262
      vertex 12.5939 -0.5 4.8625
    endloop
  endfacet
  facet normal 0 1 0
    outer loop
      vertex 13.5738 -0.5 8
      vertex 12.825 -0.5 4
      vertex 12.7118 -0.5 4.42262
    endloop
  endfacet
  facet normal 0 1 0
    outer loop
      vertex 16.9738 -0.5 0
      vertex 12.7071 -0.5 3.56012
      vertex 12.825 -0.5 4
    endloop
  endfacet
  facet normal 0 1 0
    outer loop
      vertex 11.9625 -0.5 2.50611
      vertex 16.9738 -0.5 0
      vertex 11.1 -0.5 2.275
    endloop
  endfacet
  facet normal 0 1 0
    outer loop
      vertex 12.5939 -0.5 3.1375
      vertex 16.9738 -0.5 0
      vertex 11.9625 -0.5 2.50611
    endloop
  endfacet
  facet normal 0 1 0
    outer loop
      vertex 12.7071 -0.5 3.56012
      vertex 16.9738 -0.5 0
      vertex 12.5939 -0.5 3.1375
    endloop
  endfacet
  facet normal 0 1 0
    outer loop
      vertex 16.9738 -0.5 0
      vertex 12.825 -0.5 4
      vertex 13.5738 -0.5 8
    endloop
  endfacet
  facet normal 0 1 -0
    outer loop
      vertex 10.2375 -0.5 5.49389
      vertex 8.03929 -0.5 8
      vertex 11.1 -0.5 5.725
    endloop
  endfacet
  facet normal 0 1 0
    outer loop
      vertex 10.2375 -0.5 5.49389
      vertex 8.03929 -0.5 5
      vertex 8.03929 -0.5 8
    endloop
  endfacet
  facet normal 0 1 -0
    outer loop
      vertex 9.60611 -0.5 4.8625
      vertex 8.03929 -0.5 5
      vertex 10.2375 -0.5 5.49389
    endloop
  endfacet
  facet normal 0 1 -0
    outer loop
      vertex 9.48824 -0.5 4.42262
      vertex 8.03929 -0.5 5
      vertex 9.60611 -0.5 4.8625
    endloop
  endfacet
  facet normal 0 1 -0
    outer loop
      vertex 9.375 -0.5 4
      vertex 8.03929 -0.5 5
      vertex 9.48824 -0.5 4.42262
    endloop
  endfacet
  facet normal 0 1 0
    outer loop
      vertex 9.49286 -0.5 3.56012
      vertex 8.03929 -0.5 5
      vertex 9.375 -0.5 4
    endloop
  endfacet
  facet normal 0 1 0
    outer loop
      vertex 9.60611 -0.5 3.1375
      vertex 8.03929 -0.5 5
      vertex 9.49286 -0.5 3.56012
    endloop
  endfacet
  facet normal 0 1 0
    outer loop
      vertex 8.03929 -0.5 5
      vertex 9.60611 -0.5 3.1375
      vertex 6.02081 -0.5 5
    endloop
  endfacet
  facet normal 0 1 0
    outer loop
      vertex 6.02081 -0.5 0
      vertex 9.60611 -0.5 3.1375
      vertex 10.2375 -0.5 2.50611
    endloop
  endfacet
  facet normal 0 1 0
    outer loop
      vertex 6.02081 -0.5 0
      vertex 11.1 -0.5 2.275
      vertex 16.9738 -0.5 0
    endloop
  endfacet
  facet normal 0 1 0
    outer loop
      vertex 9.60611 -0.5 3.1375
      vertex 6.02081 -0.5 0
      vertex 6.02081 -0.5 5
    endloop
  endfacet
  facet normal 0 1 0
    outer loop
      vertex 11.1 -0.5 2.275
      vertex 6.02081 -0.5 0
      vertex 10.2375 -0.5 2.50611
    endloop
  endfacet
  facet normal -0.935016 0.354605 0
    outer loop
      vertex 7.17219 -3.76426 5
      vertex 7.86463 -1.93846 8
      vertex 7.86463 -1.93846 5
    endloop
  endfacet
  facet normal -0.935016 0.354605 0
    outer loop
      vertex 7.86463 -1.93846 8
      vertex 7.17219 -3.76426 5
      vertex 7.17219 -3.76426 8
    endloop
  endfacet
  facet normal 0.822984 0.568065 0
    outer loop
      vertex -6.06294 -5.37129 8
      vertex -7.17219 -3.76426 5
      vertex -7.17219 -3.76426 8
    endloop
  endfacet
  facet normal 0.822984 0.568065 0
    outer loop
      vertex -7.17219 -3.76426 5
      vertex -6.06294 -5.37129 8
      vertex -6.06294 -5.37129 5
    endloop
  endfacet
  facet normal -0.663123 0.748511 0
    outer loop
      vertex 6.06294 -5.37129 5
      vertex 4.60132 -6.66617 8
      vertex 6.06294 -5.37129 8
    endloop
  endfacet
  facet normal -0.663123 0.748511 0
    outer loop
      vertex 4.60132 -6.66617 8
      vertex 6.06294 -5.37129 5
      vertex 4.60132 -6.66617 5
    endloop
  endfacet
  facet normal -0.992709 0.120537 0
    outer loop
      vertex 7.86463 -1.93846 5
      vertex 8.03929 -0.5 8
      vertex 8.03929 -0.5 5
    endloop
  endfacet
  facet normal -0.992709 0.120537 0
    outer loop
      vertex 8.03929 -0.5 8
      vertex 7.86463 -1.93846 5
      vertex 7.86463 -1.93846 8
    endloop
  endfacet
  facet normal 0.464723 0.885456 -0
    outer loop
      vertex -2.8723 -7.57363 5
      vertex -4.60132 -6.66617 8
      vertex -2.8723 -7.57363 8
    endloop
  endfacet
  facet normal 0.464723 0.885456 0
    outer loop
      vertex -4.60132 -6.66617 8
      vertex -2.8723 -7.57363 5
      vertex -4.60132 -6.66617 5
    endloop
  endfacet
  facet normal 0.239316 0.970942 -0
    outer loop
      vertex -0.976347 -8.04094 5
      vertex -2.8723 -7.57363 8
      vertex -0.976347 -8.04094 8
    endloop
  endfacet
  facet normal 0.239316 0.970942 0
    outer loop
      vertex -2.8723 -7.57363 8
      vertex -0.976347 -8.04094 5
      vertex -2.8723 -7.57363 5
    endloop
  endfacet
  facet normal 0.992709 0.120537 0
    outer loop
      vertex -7.86463 -1.93846 8
      vertex -8.03929 -0.5 5
      vertex -8.03929 -0.5 8
    endloop
  endfacet
  facet normal 0.992709 0.120537 0
    outer loop
      vertex -8.03929 -0.5 5
      vertex -7.86463 -1.93846 8
      vertex -7.86463 -1.93846 5
    endloop
  endfacet
  facet normal -0.239316 0.970942 0
    outer loop
      vertex 2.8723 -7.57363 5
      vertex 0.976347 -8.04094 8
      vertex 2.8723 -7.57363 8
    endloop
  endfacet
  facet normal -0.239316 0.970942 0
    outer loop
      vertex 0.976347 -8.04094 8
      vertex 2.8723 -7.57363 5
      vertex 0.976347 -8.04094 5
    endloop
  endfacet
  facet normal -0.464723 0.885456 0
    outer loop
      vertex 4.60132 -6.66617 5
      vertex 2.8723 -7.57363 8
      vertex 4.60132 -6.66617 8
    endloop
  endfacet
  facet normal -0.464723 0.885456 0
    outer loop
      vertex 2.8723 -7.57363 8
      vertex 4.60132 -6.66617 5
      vertex 2.8723 -7.57363 5
    endloop
  endfacet
  facet normal -0.822984 0.568065 0
    outer loop
      vertex 6.06294 -5.37129 5
      vertex 7.17219 -3.76426 8
      vertex 7.17219 -3.76426 5
    endloop
  endfacet
  facet normal -0.822984 0.568065 0
    outer loop
      vertex 7.17219 -3.76426 8
      vertex 6.06294 -5.37129 5
      vertex 6.06294 -5.37129 8
    endloop
  endfacet
  facet normal 0 1 -0
    outer loop
      vertex 0.976347 -8.04094 5
      vertex -0.976347 -8.04094 8
      vertex 0.976347 -8.04094 8
    endloop
  endfacet
  facet normal 0 1 0
    outer loop
      vertex -0.976347 -8.04094 8
      vertex 0.976347 -8.04094 5
      vertex -0.976347 -8.04094 5
    endloop
  endfacet
  facet normal 0.935016 0.354605 0
    outer loop
      vertex -7.17219 -3.76426 8
      vertex -7.86463 -1.93846 5
      vertex -7.86463 -1.93846 8
    endloop
  endfacet
  facet normal 0.935016 0.354605 0
    outer loop
      vertex -7.86463 -1.93846 5
      vertex -7.17219 -3.76426 8
      vertex -7.17219 -3.76426 5
    endloop
  endfacet
  facet normal 0.663123 0.748511 -0
    outer loop
      vertex -4.60132 -6.66617 5
      vertex -6.06294 -5.37129 8
      vertex -4.60132 -6.66617 8
    endloop
  endfacet
  facet normal 0.663123 0.748511 0
    outer loop
      vertex -6.06294 -5.37129 8
      vertex -4.60132 -6.66617 5
      vertex -6.06294 -5.37129 5
    endloop
  endfacet
  facet normal -4.80809e-07 -1 4.80808e-07
    outer loop
      vertex -14.4456 -5 4.00255
      vertex -12.5939 -5 4.8625
      vertex -12.0991 -5 5.35729
    endloop
  endfacet
  facet normal -2.94115e-07 -1 7.88079e-08
    outer loop
      vertex -14.4456 -5 4.00255
      vertex -12.6863 -5 4.5175
      vertex -12.5939 -5 4.8625
    endloop
  endfacet
  facet normal -1.4515e-09 -1 -9.21036e-07
    outer loop
      vertex -14.4456 -5 4.00255
      vertex -12.825 -5 4
      vertex -12.6863 -5 4.5175
    endloop
  endfacet
  facet normal 0 -1 0
    outer loop
      vertex -14.4478 -5 3.99776
      vertex -12.825 -5 4
      vertex -14.4456 -5 4.00255
    endloop
  endfacet
  facet normal 0 -1 0
    outer loop
      vertex -14.4478 -5 3.99776
      vertex -12.7326 -5 3.655
      vertex -12.825 -5 4
    endloop
  endfacet
  facet normal 0 -1 0
    outer loop
      vertex -14.4478 -5 3.99776
      vertex -12.5939 -5 3.1375
      vertex -12.7326 -5 3.655
    endloop
  endfacet
  facet normal 0 -1 0
    outer loop
      vertex -14.4478 -5 3.99776
      vertex -11.9625 -5 2.50611
      vertex -12.5939 -5 3.1375
    endloop
  endfacet
  facet normal 0 -1 0
    outer loop
      vertex -11.9625 -5 2.50611
      vertex -11.1 -5 0.65
      vertex -11.1 -5 2.275
    endloop
  endfacet
  facet normal 0 -1 0
    outer loop
      vertex -11.1 -5 0.65
      vertex -11.9625 -5 2.50611
      vertex -14.4478 -5 3.99776
    endloop
  endfacet
  facet normal -1.0165e-06 -1 0
    outer loop
      vertex -10.6309 -5 2.40069
      vertex -11.1 -5 2.275
      vertex -11.1 -5 0.65
    endloop
  endfacet
  facet normal 1.75657e-07 -1 -6.55562e-07
    outer loop
      vertex -9.425 -5 6.90119
      vertex -11.7759 -5 5.54389
      vertex -11.1 -5 5.725
    endloop
  endfacet
  facet normal -7.86264e-08 -1 -2.93438e-07
    outer loop
      vertex -10.2375 -5 5.49389
      vertex -9.425 -5 6.90119
      vertex -11.1 -5 5.725
    endloop
  endfacet
  facet normal -2.14812e-07 -1 -2.14812e-07
    outer loop
      vertex -9.425 -5 6.90119
      vertex -10.2375 -5 5.49389
      vertex -9.8941 -5 5.15049
    endloop
  endfacet
  facet normal 0.258818 0 0.965926
    outer loop
      vertex -11.1 -5 0.65
      vertex -11.184 -12.4211 0.672501
      vertex -11.1 -12.5014 0.65
    endloop
  endfacet
  facet normal 0.258819 -3.7394e-09 0.965926
    outer loop
      vertex -11.1 -5 0.65
      vertex -12.3245 -11.0971 0.978113
      vertex -11.184 -12.4211 0.672501
    endloop
  endfacet
  facet normal 0.258819 -0 0.965926
    outer loop
      vertex -12.775 -10.4594 1.09881
      vertex -11.1 -5 0.65
      vertex -12.775 -5 1.09881
    endloop
  endfacet
  facet normal 0.258819 -1.92404e-08 0.965926
    outer loop
      vertex -11.1 -5 0.65
      vertex -12.775 -10.4594 1.09881
      vertex -12.3245 -11.0971 0.978113
    endloop
  endfacet
  facet normal -0.258819 0 -0.965926
    outer loop
      vertex -10.3735 -9.34038 7.15535
      vertex -9.425 -5 6.90119
      vertex -9.425 -10.4415 6.90119
    endloop
  endfacet
  facet normal -0.258819 1.02668e-08 -0.965926
    outer loop
      vertex -11.1 -8.312 7.35
      vertex -9.425 -5 6.90119
      vertex -10.3735 -9.34038 7.15535
    endloop
  endfacet
  facet normal -0.258819 0 -0.965926
    outer loop
      vertex -9.425 -5 6.90119
      vertex -11.1 -8.312 7.35
      vertex -11.1 -5 7.35
    endloop
  endfacet
  facet normal 0.965926 4.23786e-07 0.258819
    outer loop
      vertex -14.257 -6.34761 3.27956
      vertex -14.0012 -5 2.325
      vertex -14.4488 -5 3.99549
    endloop
  endfacet
  facet normal 0.965926 1.26174e-07 0.258819
    outer loop
      vertex -14.0012 -5 2.325
      vertex -14.257 -6.34761 3.27956
      vertex -14.1001 -7.20297 2.694
    endloop
  endfacet
  facet normal -2.39953e-07 -1 -6.42952e-08
    outer loop
      vertex -9.55611 -5 3.3241
      vertex -7.75 -5 4
      vertex -8.19881 -5 5.675
    endloop
  endfacet
  facet normal -2.93439e-07 -1 7.86273e-08
    outer loop
      vertex -9.60611 -5 3.1375
      vertex -7.75 -5 4
      vertex -9.55611 -5 3.3241
    endloop
  endfacet
  facet normal -4.79903e-07 -1 4.79901e-07
    outer loop
      vertex -9.74271 -5 3.0009
      vertex -7.75 -5 4
      vertex -9.60611 -5 3.1375
    endloop
  endfacet
  facet normal -1.93652e-07 -1 -9.10268e-08
    outer loop
      vertex -7.75 -5 4
      vertex -9.74271 -5 3.0009
      vertex -11.1 -5 0.65
    endloop
  endfacet
  facet normal -0.965926 1.35158e-07 -0.258819
    outer loop
      vertex -7.75 -5 4
      vertex -7.75 -13.1852 4
      vertex -8.0798 -12.3482 5.23082
    endloop
  endfacet
  facet normal 7.84949e-07 -1 -7.84948e-07
    outer loop
      vertex -12.775 -5 6.90119
      vertex -13.4219 -5 6.25426
      vertex -14.4347 -5 4.02658
    endloop
  endfacet
  facet normal 0 -1 0
    outer loop
      vertex -14.0012 -5 2.325
      vertex -14.4478 -5 3.99776
      vertex -14.4488 -5 3.99549
    endloop
  endfacet
  facet normal 0 -1 0
    outer loop
      vertex -12.775 -5 1.09881
      vertex -14.4478 -5 3.99776
      vertex -14.0012 -5 2.325
    endloop
  endfacet
  facet normal 0 -1 0
    outer loop
      vertex -14.4478 -5 3.99776
      vertex -12.775 -5 1.09881
      vertex -11.1 -5 0.65
    endloop
  endfacet
  facet normal -2.14812e-07 -1 -2.14812e-07
    outer loop
      vertex -9.8941 -5 5.15049
      vertex -8.19881 -5 5.675
      vertex -9.425 -5 6.90119
    endloop
  endfacet
  facet normal -2.14812e-07 -1 -2.14811e-07
    outer loop
      vertex -9.60611 -5 4.8625
      vertex -8.19881 -5 5.675
      vertex -9.8941 -5 5.15049
    endloop
  endfacet
  facet normal -2.93438e-07 -1 -7.86266e-08
    outer loop
      vertex -9.51366 -5 4.5175
      vertex -8.19881 -5 5.675
      vertex -9.60611 -5 4.8625
    endloop
  endfacet
  facet normal -2.93438e-07 -1 -7.86264e-08
    outer loop
      vertex -9.375 -5 4
      vertex -8.19881 -5 5.675
      vertex -9.51366 -5 4.5175
    endloop
  endfacet
  facet normal -6.55562e-07 -1 1.75657e-07
    outer loop
      vertex -9.51366 -5 3.4825
      vertex -8.19881 -5 5.675
      vertex -9.375 -5 4
    endloop
  endfacet
  facet normal -6.55558e-07 -1 1.75655e-07
    outer loop
      vertex -8.19881 -5 5.675
      vertex -9.51366 -5 3.4825
      vertex -9.55611 -5 3.3241
    endloop
  endfacet
  facet normal 4.79906e-07 -1 -4.79906e-07
    outer loop
      vertex -10.2375 -5 2.50611
      vertex -11.1 -5 0.65
      vertex -9.74271 -5 3.0009
    endloop
  endfacet
  facet normal 7.86263e-08 -1 -2.93438e-07
    outer loop
      vertex -11.1 -5 0.65
      vertex -10.2375 -5 2.50611
      vertex -10.6309 -5 2.40069
    endloop
  endfacet
  facet normal -0.707107 0 0.707107
    outer loop
      vertex -9.425 -13.5657 1.09881
      vertex -8.19881 -5 2.325
      vertex -9.425 -5 1.09881
    endloop
  endfacet
  facet normal -0.707107 0 0.707107
    outer loop
      vertex -8.19881 -5 2.325
      vertex -9.425 -13.5657 1.09881
      vertex -8.19881 -13.7414 2.325
    endloop
  endfacet
  facet normal -7.77757e-07 -1 7.77756e-07
    outer loop
      vertex -9.425 -5 1.09881
      vertex -8.19881 -5 2.325
      vertex -11.1 -5 0.65
    endloop
  endfacet
  facet normal -0.258819 0 0.965926
    outer loop
      vertex -9.425 -5 1.09881
      vertex -9.73886 -13.4044 1.01471
      vertex -9.425 -13.5657 1.09881
    endloop
  endfacet
  facet normal -0.258819 0 0.965926
    outer loop
      vertex -11.1 -12.5014 0.65
      vertex -9.425 -5 1.09881
      vertex -11.1 -5 0.65
    endloop
  endfacet
  facet normal -0.258819 -1.08773e-08 0.965926
    outer loop
      vertex -9.425 -5 1.09881
      vertex -11.1 -12.5014 0.65
      vertex -9.73886 -13.4044 1.01471
    endloop
  endfacet
  facet normal 0.25882 0 -0.965926
    outer loop
      vertex -11.2389 -8.16555 7.31278
      vertex -11.1 -5 7.35
      vertex -11.1 -8.312 7.35
    endloop
  endfacet
  facet normal 0.258819 4.09145e-08 -0.965926
    outer loop
      vertex -12.1175 -6.99606 7.07735
      vertex -11.1 -5 7.35
      vertex -11.2389 -8.16555 7.31278
    endloop
  endfacet
  facet normal 0.258819 1.3324e-07 -0.965926
    outer loop
      vertex -12.775 -5.87041 6.90119
      vertex -11.1 -5 7.35
      vertex -12.1175 -6.99606 7.07735
    endloop
  endfacet
  facet normal 0.258819 0 -0.965926
    outer loop
      vertex -11.1 -5 7.35
      vertex -12.775 -5.87041 6.90119
      vertex -12.775 -5 6.90119
    endloop
  endfacet
  facet normal 0.965926 -0 0.258818
    outer loop
      vertex -14.0012 -7.74198 2.325
      vertex -14.0012 -5 2.325
      vertex -14.1001 -7.20297 2.694
    endloop
  endfacet
  facet normal 0.707107 -0 0.707107
    outer loop
      vertex -14.0012 -7.74198 2.325
      vertex -12.775 -5 1.09881
      vertex -14.0012 -5 2.325
    endloop
  endfacet
  facet normal 0.707107 1.07128e-07 0.707107
    outer loop
      vertex -13.9029 -8.02683 2.22669
      vertex -12.775 -5 1.09881
      vertex -14.0012 -7.74198 2.325
    endloop
  endfacet
  facet normal 0.707107 -4.19226e-09 0.707106
    outer loop
      vertex -13.2218 -9.60623 1.54566
      vertex -12.775 -5 1.09881
      vertex -13.9029 -8.02683 2.22669
    endloop
  endfacet
  facet normal 0.707107 0 0.707106
    outer loop
      vertex -12.775 -5 1.09881
      vertex -13.2218 -9.60623 1.54566
      vertex -12.775 -10.4594 1.09881
    endloop
  endfacet
  facet normal -0.707107 0 -0.707107
    outer loop
      vertex -8.19881 -5 5.675
      vertex -9.425 -10.4415 6.90119
      vertex -9.425 -5 6.90119
    endloop
  endfacet
  facet normal -0.707094 -5.90263e-06 -0.70712
    outer loop
      vertex -8.19881 -5 5.675
      vertex -9.41539 -10.4569 6.89158
      vertex -9.425 -10.4415 6.90119
    endloop
  endfacet
  facet normal -0.707107 4.67416e-08 -0.707106
    outer loop
      vertex -8.19881 -5 5.675
      vertex -8.49956 -11.6986 5.97574
      vertex -9.41539 -10.4569 6.89158
    endloop
  endfacet
  facet normal -0.707107 0 -0.707107
    outer loop
      vertex -8.49956 -11.6986 5.97574
      vertex -8.19881 -5 5.675
      vertex -8.19881 -12.0461 5.675
    endloop
  endfacet
  facet normal -0.965926 -4.37817e-08 0.258819
    outer loop
      vertex -8.19881 -5 2.325
      vertex -8.139 -13.6673 2.54823
      vertex -7.75 -5 4
    endloop
  endfacet
  facet normal -0.965925 0 0.258821
    outer loop
      vertex -8.139 -13.6673 2.54823
      vertex -8.19881 -5 2.325
      vertex -8.19881 -13.7414 2.325
    endloop
  endfacet
  facet normal -3.88879e-07 -1 1.042e-07
    outer loop
      vertex -8.19881 -5 2.325
      vertex -7.75 -5 4
      vertex -11.1 -5 0.65
    endloop
  endfacet
  facet normal -6.42951e-08 -1 -2.39953e-07
    outer loop
      vertex -11.1 -5 7.35
      vertex -11.7759 -5 5.54389
      vertex -9.425 -5 6.90119
    endloop
  endfacet
  facet normal 7.86265e-08 -1 -2.93438e-07
    outer loop
      vertex -11.1 -5 7.35
      vertex -11.9625 -5 5.49389
      vertex -11.7759 -5 5.54389
    endloop
  endfacet
  facet normal 4.79909e-07 -1 -4.79907e-07
    outer loop
      vertex -11.1 -5 7.35
      vertex -12.0991 -5 5.35729
      vertex -11.9625 -5 5.49389
    endloop
  endfacet
  facet normal -9.20479e-08 -1 -1.9314e-07
    outer loop
      vertex -14.444 -5 4.00598
      vertex -12.0991 -5 5.35729
      vertex -11.1 -5 7.35
    endloop
  endfacet
  facet normal -2.75541e-07 -1 1.25274e-07
    outer loop
      vertex -12.0991 -5 5.35729
      vertex -14.444 -5 4.00598
      vertex -14.4456 -5 4.00255
    endloop
  endfacet
  facet normal 1.05163e-07 -1 -3.92474e-07
    outer loop
      vertex -14.4347 -5 4.02658
      vertex -11.1 -5 7.35
      vertex -12.775 -5 6.90119
    endloop
  endfacet
  facet normal -5.22937e-07 -1 2.37749e-07
    outer loop
      vertex -11.1 -5 7.35
      vertex -14.4347 -5 4.02658
      vertex -14.444 -5 4.00598
    endloop
  endfacet
  facet normal 0.707107 -8.69666e-08 -0.707107
    outer loop
      vertex -12.775 -5 6.90119
      vertex -12.899 -5.74299 6.77721
      vertex -13.4219 -5 6.25426
    endloop
  endfacet
  facet normal 0.707107 0 -0.707107
    outer loop
      vertex -12.899 -5.74299 6.77721
      vertex -12.775 -5 6.90119
      vertex -12.775 -5.87041 6.90119
    endloop
  endfacet
  facet normal -0.965926 0 -0.258819
    outer loop
      vertex -7.75 -5 4
      vertex -8.19881 -12.0461 5.675
      vertex -8.19881 -5 5.675
    endloop
  endfacet
  facet normal -0.965926 2.28373e-08 -0.258819
    outer loop
      vertex -8.19881 -12.0461 5.675
      vertex -7.75 -5 4
      vertex -8.0798 -12.3482 5.23082
    endloop
  endfacet
  facet normal -0.965926 8.99249e-08 0.258819
    outer loop
      vertex -7.75 -13.1852 4
      vertex -7.75 -5 4
      vertex -8.139 -13.6673 2.54823
    endloop
  endfacet
  facet normal 0.258819 0 0.965926
    outer loop
      vertex 9.425 -5 1.09881
      vertex 11.1 -12.5014 0.65
      vertex 11.1 -5 0.65
    endloop
  endfacet
  facet normal 0.258819 -1.08773e-08 0.965926
    outer loop
      vertex 11.1 -12.5014 0.65
      vertex 9.425 -5 1.09881
      vertex 9.73886 -13.4044 1.01471
    endloop
  endfacet
  facet normal 0.258819 0 0.965926
    outer loop
      vertex 9.73886 -13.4044 1.01471
      vertex 9.425 -5 1.09881
      vertex 9.425 -13.5657 1.09881
    endloop
  endfacet
  facet normal 7.77758e-07 -1 -7.77758e-07
    outer loop
      vertex 9.425 -5 6.90119
      vertex 8.19881 -5 5.675
      vertex 7.75 -5 4
    endloop
  endfacet
  facet normal 0.965926 -1.35158e-07 0.258819
    outer loop
      vertex 7.75 -13.1852 4
      vertex 8.19881 -5 2.325
      vertex 7.75 -5 4
    endloop
  endfacet
  facet normal 0.965926 6.63025e-09 0.258819
    outer loop
      vertex 8.19881 -5 2.325
      vertex 7.75 -13.1852 4
      vertex 7.82716 -13.2809 3.71204
    endloop
  endfacet
  facet normal 0.965926 -8.19428e-08 -0.258819
    outer loop
      vertex 7.84192 -12.952 4.34305
      vertex 7.75 -5 4
      vertex 8.19881 -5 5.675
    endloop
  endfacet
  facet normal 0.965926 -8.99248e-08 -0.258819
    outer loop
      vertex 7.75 -5 4
      vertex 7.84192 -12.952 4.34305
      vertex 7.75 -13.1852 4
    endloop
  endfacet
  facet normal 0 -1 0
    outer loop
      vertex 9.425 -5 1.09881
      vertex 7.75 -5 4
      vertex 8.19881 -5 2.325
    endloop
  endfacet
  facet normal 0 -1 0
    outer loop
      vertex 7.75 -5 4
      vertex 9.425 -5 1.09881
      vertex 11.1 -5 0.65
    endloop
  endfacet
  facet normal 0.707107 0 0.707107
    outer loop
      vertex 8.19881 -5 2.325
      vertex 9.425 -13.5657 1.09881
      vertex 9.425 -5 1.09881
    endloop
  endfacet
  facet normal 0.707107 0 0.707107
    outer loop
      vertex 9.425 -13.5657 1.09881
      vertex 8.19881 -5 2.325
      vertex 8.19881 -13.7414 2.325
    endloop
  endfacet
  facet normal 1.042e-07 -1 -3.88878e-07
    outer loop
      vertex 11.1 -5 7.35
      vertex 9.425 -5 6.90119
      vertex 7.75 -5 4
    endloop
  endfacet
  facet normal 0.965926 -0 0.258819
    outer loop
      vertex 8.19881 -13.7414 2.325
      vertex 8.19881 -5 2.325
      vertex 7.82716 -13.2809 3.71204
    endloop
  endfacet
  facet normal 0 -1 -0
    outer loop
      vertex 14.4478 -5 3.99776
      vertex 14.0012 -5 2.325
      vertex 14.4488 -5 3.99549
    endloop
  endfacet
  facet normal -3.88618e-07 -1 1.03748e-07
    outer loop
      vertex 14.0012 -5 2.325
      vertex 14.4478 -5 3.99776
      vertex 11.1 -5 0.65
    endloop
  endfacet
  facet normal -0.965926 4.76118e-07 0.25882
    outer loop
      vertex 14.0012 -5 2.325
      vertex 14.257 -6.34761 3.27956
      vertex 14.4488 -5 3.99549
    endloop
  endfacet
  facet normal -0.965926 8.94878e-08 0.258819
    outer loop
      vertex 14.257 -6.34761 3.27956
      vertex 14.0012 -5 2.325
      vertex 14.1001 -7.20297 2.694
    endloop
  endfacet
  facet normal -0.258819 1.3324e-07 -0.965926
    outer loop
      vertex 11.1 -5 7.35
      vertex 12.775 -5.87041 6.90119
      vertex 12.1175 -6.99606 7.07735
    endloop
  endfacet
  facet normal -0.258819 4.09145e-08 -0.965926
    outer loop
      vertex 11.1 -5 7.35
      vertex 12.1175 -6.99606 7.07735
      vertex 11.2389 -8.16555 7.31278
    endloop
  endfacet
  facet normal -0.25882 -0 -0.965926
    outer loop
      vertex 11.1 -5 7.35
      vertex 11.2389 -8.16555 7.31278
      vertex 11.1 -8.312 7.35
    endloop
  endfacet
  facet normal -0.258819 0 -0.965926
    outer loop
      vertex 12.775 -5.87041 6.90119
      vertex 11.1 -5 7.35
      vertex 12.775 -5 6.90119
    endloop
  endfacet
  facet normal -0.258819 0 0.965926
    outer loop
      vertex 11.1 -5 0.65
      vertex 12.775 -10.4594 1.09881
      vertex 12.775 -5 1.09881
    endloop
  endfacet
  facet normal -0.258819 -1.92404e-08 0.965926
    outer loop
      vertex 12.775 -10.4594 1.09881
      vertex 11.1 -5 0.65
      vertex 12.3245 -11.0971 0.978113
    endloop
  endfacet
  facet normal -0.258819 -3.7394e-09 0.965926
    outer loop
      vertex 12.3245 -11.0971 0.978113
      vertex 11.1 -5 0.65
      vertex 11.184 -12.4211 0.672501
    endloop
  endfacet
  facet normal -0.258818 0 0.965926
    outer loop
      vertex 11.184 -12.4211 0.672501
      vertex 11.1 -5 0.65
      vertex 11.1 -12.5014 0.65
    endloop
  endfacet
  facet normal -7.77757e-07 -1 7.77756e-07
    outer loop
      vertex 12.775 -5 1.09881
      vertex 14.0012 -5 2.325
      vertex 11.1 -5 0.65
    endloop
  endfacet
  facet normal -6.42951e-08 -1 -2.39953e-07
    outer loop
      vertex 11.1 -5 7.35
      vertex 10.4241 -5 5.54389
      vertex 12.775 -5 6.90119
    endloop
  endfacet
  facet normal 7.86269e-08 -1 -2.93438e-07
    outer loop
      vertex 11.1 -5 7.35
      vertex 10.2375 -5 5.49389
      vertex 10.4241 -5 5.54389
    endloop
  endfacet
  facet normal 4.79909e-07 -1 -4.79907e-07
    outer loop
      vertex 11.1 -5 7.35
      vertex 10.1009 -5 5.35729
      vertex 10.2375 -5 5.49389
    endloop
  endfacet
  facet normal -9.10271e-08 -1 -1.93652e-07
    outer loop
      vertex 10.1009 -5 5.35729
      vertex 11.1 -5 7.35
      vertex 7.75 -5 4
    endloop
  endfacet
  facet normal -4.79905e-07 -1 4.79905e-07
    outer loop
      vertex 7.75 -5 4
      vertex 9.60611 -5 4.8625
      vertex 10.1009 -5 5.35729
    endloop
  endfacet
  facet normal -2.93438e-07 -1 7.86264e-08
    outer loop
      vertex 7.75 -5 4
      vertex 9.46744 -5 4.345
      vertex 9.60611 -5 4.8625
    endloop
  endfacet
  facet normal -4.05571e-13 -1 -1.38214e-06
    outer loop
      vertex 7.75 -5 4
      vertex 9.375 -5 4
      vertex 9.46744 -5 4.345
    endloop
  endfacet
  facet normal 0 -1 0
    outer loop
      vertex 7.75 -5 4
      vertex 9.51366 -5 3.4825
      vertex 9.375 -5 4
    endloop
  endfacet
  facet normal 0 -1 0
    outer loop
      vertex 7.75 -5 4
      vertex 9.60611 -5 3.1375
      vertex 9.51366 -5 3.4825
    endloop
  endfacet
  facet normal 0 -1 0
    outer loop
      vertex 7.75 -5 4
      vertex 10.2375 -5 2.50611
      vertex 9.60611 -5 3.1375
    endloop
  endfacet
  facet normal 0 -1 0
    outer loop
      vertex 10.2375 -5 2.50611
      vertex 11.1 -5 0.65
      vertex 11.1 -5 2.275
    endloop
  endfacet
  facet normal 0 -1 0
    outer loop
      vertex 11.1 -5 0.65
      vertex 10.2375 -5 2.50611
      vertex 7.75 -5 4
    endloop
  endfacet
  facet normal -1.0165e-06 -1 0
    outer loop
      vertex 11.5691 -5 2.40069
      vertex 11.1 -5 2.275
      vertex 11.1 -5 0.65
    endloop
  endfacet
  facet normal 1.75657e-07 -1 -6.55561e-07
    outer loop
      vertex 12.775 -5 6.90119
      vertex 10.4241 -5 5.54389
      vertex 11.1 -5 5.725
    endloop
  endfacet
  facet normal -7.86264e-08 -1 -2.93438e-07
    outer loop
      vertex 11.9625 -5 5.49389
      vertex 12.775 -5 6.90119
      vertex 11.1 -5 5.725
    endloop
  endfacet
  facet normal -2.14812e-07 -1 -2.14812e-07
    outer loop
      vertex 12.775 -5 6.90119
      vertex 11.9625 -5 5.49389
      vertex 12.3059 -5 5.15049
    endloop
  endfacet
  facet normal 0.258819 1.02668e-08 -0.965926
    outer loop
      vertex 9.425 -5 6.90119
      vertex 11.1 -8.312 7.35
      vertex 10.3735 -9.34038 7.15535
    endloop
  endfacet
  facet normal 0.258819 0 -0.965926
    outer loop
      vertex 9.425 -5 6.90119
      vertex 10.3735 -9.34038 7.15535
      vertex 9.425 -10.4415 6.90119
    endloop
  endfacet
  facet normal 0.258819 0 -0.965926
    outer loop
      vertex 11.1 -8.312 7.35
      vertex 9.425 -5 6.90119
      vertex 11.1 -5 7.35
    endloop
  endfacet
  facet normal 0.707107 0 -0.707107
    outer loop
      vertex 9.425 -10.4415 6.90119
      vertex 8.19881 -5 5.675
      vertex 9.425 -5 6.90119
    endloop
  endfacet
  facet normal 0.707094 -5.90263e-06 -0.70712
    outer loop
      vertex 9.41539 -10.4569 6.89158
      vertex 8.19881 -5 5.675
      vertex 9.425 -10.4415 6.90119
    endloop
  endfacet
  facet normal 0.707107 4.67416e-08 -0.707106
    outer loop
      vertex 8.49956 -11.6986 5.97574
      vertex 8.19881 -5 5.675
      vertex 9.41539 -10.4569 6.89158
    endloop
  endfacet
  facet normal 0.707107 0 -0.707107
    outer loop
      vertex 8.19881 -5 5.675
      vertex 8.49956 -11.6986 5.97574
      vertex 8.19881 -12.0461 5.675
    endloop
  endfacet
  facet normal 0.965926 0 -0.258819
    outer loop
      vertex 8.19881 -5 5.675
      vertex 8.19881 -12.0461 5.675
      vertex 7.84192 -12.952 4.34305
    endloop
  endfacet
  facet normal -2.14812e-07 -1 -2.14812e-07
    outer loop
      vertex 12.3059 -5 5.15049
      vertex 13.4219 -5 6.25426
      vertex 12.775 -5 6.90119
    endloop
  endfacet
  facet normal -2.14812e-07 -1 -2.14812e-07
    outer loop
      vertex 12.5939 -5 4.8625
      vertex 13.4219 -5 6.25426
      vertex 12.3059 -5 5.15049
    endloop
  endfacet
  facet normal -3.26435e-07 -1 -1.48402e-07
    outer loop
      vertex 13.4219 -5 6.25426
      vertex 12.5939 -5 4.8625
      vertex 13.8244 -5 5.36886
    endloop
  endfacet
  facet normal -3.49018e-07 -1 -9.35197e-08
    outer loop
      vertex 12.7326 -5 4.345
      vertex 13.8244 -5 5.36886
      vertex 12.5939 -5 4.8625
    endloop
  endfacet
  facet normal -3.49019e-07 -1 -9.35193e-08
    outer loop
      vertex 12.825 -5 4
      vertex 13.8244 -5 5.36886
      vertex 12.7326 -5 4.345
    endloop
  endfacet
  facet normal -7.53715e-07 -1 2.01958e-07
    outer loop
      vertex 12.6863 -5 3.4825
      vertex 13.8244 -5 5.36886
      vertex 12.825 -5 4
    endloop
  endfacet
  facet normal -7.53708e-07 -1 2.01954e-07
    outer loop
      vertex 13.8244 -5 5.36886
      vertex 12.6863 -5 3.4825
      vertex 12.6439 -5 3.3241
    endloop
  endfacet
  facet normal 4.79906e-07 -1 -4.79906e-07
    outer loop
      vertex 11.9625 -5 2.50611
      vertex 11.1 -5 0.65
      vertex 12.4573 -5 3.0009
    endloop
  endfacet
  facet normal 7.86263e-08 -1 -2.93438e-07
    outer loop
      vertex 11.1 -5 0.65
      vertex 11.9625 -5 2.50611
      vertex 11.5691 -5 2.40069
    endloop
  endfacet
  facet normal -0.707107 0 0.707107
    outer loop
      vertex 12.775 -5 1.09881
      vertex 14.0012 -7.74198 2.325
      vertex 14.0012 -5 2.325
    endloop
  endfacet
  facet normal -0.707107 1.07128e-07 0.707107
    outer loop
      vertex 12.775 -5 1.09881
      vertex 13.9029 -8.02683 2.22669
      vertex 14.0012 -7.74198 2.325
    endloop
  endfacet
  facet normal -0.707107 -4.19226e-09 0.707106
    outer loop
      vertex 12.775 -5 1.09881
      vertex 13.2218 -9.60623 1.54566
      vertex 13.9029 -8.02683 2.22669
    endloop
  endfacet
  facet normal -0.707107 0 0.707106
    outer loop
      vertex 13.2218 -9.60623 1.54566
      vertex 12.775 -5 1.09881
      vertex 12.775 -10.4594 1.09881
    endloop
  endfacet
  facet normal -0.965926 0 0.258818
    outer loop
      vertex 14.1001 -7.20297 2.694
      vertex 14.0012 -5 2.325
      vertex 14.0012 -7.74198 2.325
    endloop
  endfacet
  facet normal -0.707107 -8.69666e-08 -0.707107
    outer loop
      vertex 12.899 -5.74299 6.77721
      vertex 12.775 -5 6.90119
      vertex 13.4219 -5 6.25426
    endloop
  endfacet
  facet normal -0.707107 -0 -0.707107
    outer loop
      vertex 12.775 -5 6.90119
      vertex 12.899 -5.74299 6.77721
      vertex 12.775 -5.87041 6.90119
    endloop
  endfacet
  facet normal -2.25977e-07 -1 -1.02732e-07
    outer loop
      vertex 12.6439 -5 3.3241
      vertex 14.4478 -5 3.99776
      vertex 13.8244 -5 5.36886
    endloop
  endfacet
  facet normal -2.93735e-07 -1 7.87067e-08
    outer loop
      vertex 12.5939 -5 3.1375
      vertex 14.4478 -5 3.99776
      vertex 12.6439 -5 3.3241
    endloop
  endfacet
  facet normal -4.79903e-07 -1 4.79901e-07
    outer loop
      vertex 12.4573 -5 3.0009
      vertex 14.4478 -5 3.99776
      vertex 12.5939 -5 3.1375
    endloop
  endfacet
  facet normal -1.94103e-07 -1 -9.07663e-08
    outer loop
      vertex 14.4478 -5 3.99776
      vertex 12.4573 -5 3.0009
      vertex 11.1 -5 0.65
    endloop
  endfacet
  facet normal -0 0 1
    outer loop
      vertex 6.02081 -0.5 5
      vertex 7.86463 -1.93846 5
      vertex 8.03929 -0.5 5
    endloop
  endfacet
  facet normal 0 0 1
    outer loop
      vertex 7.86463 -1.93846 5
      vertex 5.80144 -1.885 5
      vertex 7.17219 -3.76426 5
    endloop
  endfacet
  facet normal 0 0 1
    outer loop
      vertex 7.86463 -1.93846 5
      vertex 6.02081 -0.5 5
      vertex 5.80144 -1.885 5
    endloop
  endfacet
  facet normal -0 0 1
    outer loop
      vertex 4.935 -3.58549 5
      vertex 7.17219 -3.76426 5
      vertex 5.80144 -1.885 5
    endloop
  endfacet
  facet normal 0 0 1
    outer loop
      vertex 7.17219 -3.76426 5
      vertex 4.935 -3.58549 5
      vertex 6.06294 -5.37129 5
    endloop
  endfacet
  facet normal -0 0 1
    outer loop
      vertex 3.58549 -4.935 5
      vertex 6.06294 -5.37129 5
      vertex 4.935 -3.58549 5
    endloop
  endfacet
  facet normal 0 0 1
    outer loop
      vertex 6.06294 -5.37129 5
      vertex 3.58549 -4.935 5
      vertex 4.60132 -6.66617 5
    endloop
  endfacet
  facet normal 0 0 1
    outer loop
      vertex 3.58549 -4.935 5
      vertex 2.8723 -7.57363 5
      vertex 4.60132 -6.66617 5
    endloop
  endfacet
  facet normal -0 0 1
    outer loop
      vertex 1.885 -5.80144 5
      vertex 2.8723 -7.57363 5
      vertex 3.58549 -4.935 5
    endloop
  endfacet
  facet normal 0 0 1
    outer loop
      vertex 1.885 -5.80144 5
      vertex 0.976347 -8.04094 5
      vertex 2.8723 -7.57363 5
    endloop
  endfacet
  facet normal -0 0 1
    outer loop
      vertex 0 -6.1 5
      vertex 0.976347 -8.04094 5
      vertex 1.885 -5.80144 5
    endloop
  endfacet
  facet normal 0 0 1
    outer loop
      vertex 0 -6.1 5
      vertex -0.976347 -8.04094 5
      vertex 0.976347 -8.04094 5
    endloop
  endfacet
  facet normal 0 0 1
    outer loop
      vertex -1.885 -5.80144 5
      vertex -0.976347 -8.04094 5
      vertex 0 -6.1 5
    endloop
  endfacet
  facet normal 0 0 1
    outer loop
      vertex -1.885 -5.80144 5
      vertex -2.8723 -7.57363 5
      vertex -0.976347 -8.04094 5
    endloop
  endfacet
  facet normal 0 0 1
    outer loop
      vertex -3.58549 -4.935 5
      vertex -2.8723 -7.57363 5
      vertex -1.885 -5.80144 5
    endloop
  endfacet
  facet normal 0 0 1
    outer loop
      vertex -3.58549 -4.935 5
      vertex -4.60132 -6.66617 5
      vertex -2.8723 -7.57363 5
    endloop
  endfacet
  facet normal 0 0 1
    outer loop
      vertex -6.06294 -5.37129 5
      vertex -3.58549 -4.935 5
      vertex -4.935 -3.58549 5
    endloop
  endfacet
  facet normal 0 0 1
    outer loop
      vertex -7.17219 -3.76426 5
      vertex -4.935 -3.58549 5
      vertex -5.80144 -1.885 5
    endloop
  endfacet
  facet normal 0 0 1
    outer loop
      vertex -3.58549 -4.935 5
      vertex -6.06294 -5.37129 5
      vertex -4.60132 -6.66617 5
    endloop
  endfacet
  facet normal 0 0 1
    outer loop
      vertex -7.86463 -1.93846 5
      vertex -5.80144 -1.885 5
      vertex -6.02081 -0.5 5
    endloop
  endfacet
  facet normal 0 0 1
    outer loop
      vertex -4.935 -3.58549 5
      vertex -7.17219 -3.76426 5
      vertex -6.06294 -5.37129 5
    endloop
  endfacet
  facet normal 0 0 1
    outer loop
      vertex -5.80144 -1.885 5
      vertex -7.86463 -1.93846 5
      vertex -7.17219 -3.76426 5
    endloop
  endfacet
  facet normal 0 -0 1
    outer loop
      vertex -7.86463 -1.93846 5
      vertex -6.02081 -0.5 5
      vertex -8.03929 -0.5 5
    endloop
  endfacet
  facet normal 0.156435 0.987688 -0
    outer loop
      vertex 0 -6.1 0
      vertex -1.885 -5.80144 5
      vertex 0 -6.1 5
    endloop
  endfacet
  facet normal 0.156435 0.987688 0
    outer loop
      vertex -1.885 -5.80144 5
      vertex 0 -6.1 0
      vertex -1.885 -5.80144 0
    endloop
  endfacet
  facet normal -0.891007 0.45399 0
    outer loop
      vertex 4.935 -3.58549 0
      vertex 5.80144 -1.885 5
      vertex 5.80144 -1.885 0
    endloop
  endfacet
  facet normal -0.891007 0.45399 0
    outer loop
      vertex 5.80144 -1.885 5
      vertex 4.935 -3.58549 0
      vertex 4.935 -3.58549 5
    endloop
  endfacet
  facet normal 0.707107 0.707107 0
    outer loop
      vertex -3.58549 -4.935 5
      vertex -4.935 -3.58549 0
      vertex -4.935 -3.58549 5
    endloop
  endfacet
  facet normal 0.707107 0.707107 0
    outer loop
      vertex -4.935 -3.58549 0
      vertex -3.58549 -4.935 5
      vertex -3.58549 -4.935 0
    endloop
  endfacet
  facet normal 0.987688 0.156435 0
    outer loop
      vertex -5.80144 -1.885 5
      vertex -6.02081 -0.5 0
      vertex -6.02081 -0.5 5
    endloop
  endfacet
  facet normal 0.987688 0.156435 0
    outer loop
      vertex -6.02081 -0.5 0
      vertex -5.80144 -1.885 5
      vertex -5.80144 -1.885 0
    endloop
  endfacet
  facet normal -0.987688 0.156435 0
    outer loop
      vertex 5.80144 -1.885 0
      vertex 6.02081 -0.5 5
      vertex 6.02081 -0.5 0
    endloop
  endfacet
  facet normal -0.987688 0.156435 0
    outer loop
      vertex 6.02081 -0.5 5
      vertex 5.80144 -1.885 0
      vertex 5.80144 -1.885 5
    endloop
  endfacet
  facet normal -0.156435 0.987688 0
    outer loop
      vertex 1.885 -5.80144 0
      vertex 0 -6.1 5
      vertex 1.885 -5.80144 5
    endloop
  endfacet
  facet normal -0.156435 0.987688 0
    outer loop
      vertex 0 -6.1 5
      vertex 1.885 -5.80144 0
      vertex 0 -6.1 0
    endloop
  endfacet
  facet normal -0.707107 0.707107 0
    outer loop
      vertex 3.58549 -4.935 0
      vertex 4.935 -3.58549 5
      vertex 4.935 -3.58549 0
    endloop
  endfacet
  facet normal -0.707107 0.707107 0
    outer loop
      vertex 4.935 -3.58549 5
      vertex 3.58549 -4.935 0
      vertex 3.58549 -4.935 5
    endloop
  endfacet
  facet normal 0.45399 0.891007 -0
    outer loop
      vertex -1.885 -5.80144 0
      vertex -3.58549 -4.935 5
      vertex -1.885 -5.80144 5
    endloop
  endfacet
  facet normal 0.45399 0.891007 0
    outer loop
      vertex -3.58549 -4.935 5
      vertex -1.885 -5.80144 0
      vertex -3.58549 -4.935 0
    endloop
  endfacet
  facet normal 0.891007 0.45399 0
    outer loop
      vertex -4.935 -3.58549 5
      vertex -5.80144 -1.885 0
      vertex -5.80144 -1.885 5
    endloop
  endfacet
  facet normal 0.891007 0.45399 0
    outer loop
      vertex -5.80144 -1.885 0
      vertex -4.935 -3.58549 5
      vertex -4.935 -3.58549 0
    endloop
  endfacet
  facet normal -0.45399 0.891007 0
    outer loop
      vertex 3.58549 -4.935 0
      vertex 1.885 -5.80144 5
      vertex 3.58549 -4.935 5
    endloop
  endfacet
  facet normal -0.45399 0.891007 0
    outer loop
      vertex 1.885 -5.80144 5
      vertex 3.58549 -4.935 0
      vertex 1.885 -5.80144 0
    endloop
  endfacet
endsolid OpenSCAD_Model
